<svg width="90" height="28" viewBox="0 0 90 28" fill="none" xmlns="http://www.w3.org/2000/svg">
<path fill-rule="evenodd" clip-rule="evenodd" d="M37.1745 12.0955C37.1745 8.59356 34.6693 6.38464 31.4906 6.38464C28.3119 6.38464 25.8066 8.59356 25.8066 12.0955C25.8066 15.5974 28.2311 17.8064 31.4098 17.8064C34.6154 17.8064 37.1745 15.5705 37.1745 12.0955ZM28.6351 12.0955C28.6351 9.88658 29.982 8.836 31.4367 8.836C32.8913 8.836 34.2921 9.88658 34.2921 12.0955C34.2921 14.3044 32.8644 15.355 31.4098 15.355C29.9551 15.355 28.6351 14.2775 28.6351 12.0955ZM46.953 17.6178H49.7546V11.1257C49.7546 8.08173 47.9228 6.41157 45.3367 6.41157C42.7507 6.41157 42.7237 7.00421 41.9964 7.94704V6.5732H39.1948V17.6178H41.9964V11.5029C41.9964 9.72495 42.9662 8.78212 44.5016 8.78212C46.0371 8.78212 46.953 9.75189 46.953 11.5029V17.6178ZM52.3945 17.6178H55.196V6.5732H52.3945V17.6178ZM53.8222 5.25324C54.792 5.25324 55.5462 4.52591 55.5462 3.61002C55.5462 2.69412 54.8189 1.9668 53.8222 1.9668C52.8255 1.9668 52.0982 2.69412 52.0982 3.61002C52.0982 4.52591 52.8255 5.25324 53.8222 5.25324ZM58.4017 14.1967C58.4017 16.7288 59.8294 17.6178 61.9306 17.6178H63.6815V15.2742H62.3885C61.4995 15.2742 61.2032 14.9509 61.2032 14.2236V8.88987H63.6815V6.60014H61.2032V3.8794H58.4017V6.60014H57.0817V8.88987H58.4017V14.2236V14.1967ZM64.9746 12.0686C64.9746 15.5166 67.2104 17.8064 70.012 17.8064C72.8135 17.8064 73.029 16.9713 73.6755 16.0015V17.6178H76.4771V6.5732H73.6755V8.13561C73.029 7.21972 71.7899 6.38464 70.0389 6.38464C67.2374 6.38464 65.0015 8.59356 65.0015 12.0416L64.9746 12.0686ZM73.6755 12.0955C73.6755 14.1967 72.2748 15.355 70.7393 15.355C69.2038 15.355 67.83 14.1697 67.83 12.0686C67.83 9.9674 69.2577 8.86294 70.7393 8.86294C72.2748 8.86294 73.6755 10.0213 73.6755 12.1224V12.0955ZM78.4974 12.0686C78.4974 15.5166 80.7333 17.8064 83.5349 17.8064C86.3364 17.8064 86.525 16.9443 87.1715 16.0015V17.7256C87.1715 19.7728 85.9862 20.6618 84.4508 20.6618C82.9153 20.6618 82.0263 20.0153 81.73 19.0186H78.9554C79.2248 21.5508 81.4068 23.1132 84.5316 23.1132C87.6564 23.1132 90 20.7426 90 17.7525V6.5732H87.1984V8.13561C86.5519 7.16584 85.2858 6.38464 83.5618 6.38464C80.7603 6.38464 78.5244 8.59356 78.5244 12.0416L78.4974 12.0686ZM87.1984 12.0955C87.1984 14.1967 85.7977 15.355 84.2622 15.355C82.7267 15.355 81.3529 14.1697 81.3529 12.0686C81.3529 9.9674 82.7806 8.86294 84.2622 8.86294C85.7977 8.86294 87.1984 10.0213 87.1984 12.1224V12.0955Z" fill="#313131"/>
<path d="M12.2568 17.6717C11.6372 17.7794 10.7213 17.51 10.2903 17.1599C10.3711 16.6211 10.3981 16.217 10.9099 16.1093C11.8797 16.3248 11.9066 16.675 12.3376 17.537C12.3376 17.5909 12.3376 17.6178 12.2837 17.6447L12.2568 17.6717ZM12.7148 17.6717C12.4184 16.8366 12.2029 16.3786 11.6372 16.0015C11.4487 15.8129 10.856 15.7052 10.5058 15.9207C10.2365 16.0285 10.0748 16.3248 9.99401 16.8635H9.9132C9.80545 16.7558 9.69769 16.675 9.58994 16.5403C9.58994 15.8668 9.85932 15.355 10.1556 15.1395C10.9368 14.6546 12.1221 15.1395 12.4454 15.5166C12.9572 15.9746 13.2266 16.4325 13.5498 17.2676C13.4421 17.4562 13.1458 17.4831 12.7417 17.6717H12.7148ZM14.4657 16.4325C14.3041 16.648 14.1425 16.8366 13.927 17.0521C13.8731 17.0521 13.8462 17.0521 13.7923 16.9713C13.3613 15.9746 12.9033 15.2742 12.0413 14.7893C11.4756 14.5738 10.7752 14.3852 10.1287 14.6816C9.69769 14.9509 9.45525 15.1934 9.26669 15.8399H9.15893C9.07812 15.5166 8.94343 15.1934 8.94343 14.8432C9.21281 14.3044 9.40138 13.9812 10.1826 13.7387C11.2062 13.4424 12.5531 13.9812 12.9841 14.4122C13.6037 14.8971 14.0617 15.5166 14.4388 16.2709C14.4388 16.3248 14.4119 16.3517 14.4388 16.4325H14.4657ZM14.7082 15.9746C14.1963 15.0587 13.5768 14.2505 12.6878 13.7657C11.6911 13.0383 9.50913 13.1461 9.05118 13.9812C9.07812 13.9812 8.99731 14.1428 8.97037 13.9812C8.97037 13.6579 8.97037 13.3346 8.97037 12.9575C9.18587 12.6612 9.94014 12.3918 10.6136 12.3379C11.2332 12.3379 11.8527 12.4188 12.5531 12.6881C13.2805 12.9845 13.7653 13.3616 14.2772 13.8734C14.5196 14.0889 14.7082 14.3583 14.9237 14.6277C15.1392 14.9509 14.9237 15.5436 14.7082 15.9746ZM15.0314 14.0889H14.9237C14.331 13.3885 13.6576 12.7689 12.7148 12.3649C12.0682 12.0955 11.4487 11.9877 10.7483 11.9877C10.2095 11.9339 9.3475 12.1494 8.97037 12.4726C8.91649 12.2033 8.97037 11.8531 8.91649 11.5029C9.50913 11.1796 10.3173 11.0988 11.0177 11.1257C12.0144 11.1257 13.3343 11.6106 13.8462 11.9877C14.1694 12.1763 14.4657 12.4188 14.762 12.6881C15.1392 12.8498 14.8698 13.631 15.0045 14.0889H15.0314ZM15.0045 11.5298C15.0045 11.7992 14.9776 12.0416 15.0045 12.3649C14.2502 11.7722 13.8192 11.422 12.5262 10.9641C11.3679 10.6678 10.1826 10.56 8.99731 11.018C8.94343 10.6947 8.99731 10.3715 8.99731 10.0751C9.42832 9.91352 9.85932 9.85964 10.2903 9.8327C11.3679 9.80577 12.4723 9.96739 13.5768 10.4253C13.9808 10.6408 14.331 10.7755 14.6812 11.018C14.789 11.1796 15.0853 11.1257 15.0045 11.5298ZM15.0045 10.8025C14.6812 10.587 14.358 10.3715 13.9539 10.1829C13.2805 9.85964 12.3107 9.56332 11.5025 9.48251C10.6675 9.40169 9.83239 9.40169 8.97037 9.6172V8.78212C8.94343 8.7013 9.02424 8.75518 9.10506 8.70131C9.53607 8.62049 9.99401 8.56662 10.425 8.51274C11.2601 8.53968 12.0952 8.59355 12.9572 8.83599C13.9808 9.13231 14.4657 9.42863 15.0045 9.75189C15.0045 10.0751 15.0045 10.3984 15.0045 10.7486V10.8025ZM15.0045 9.34782C14.5735 9.10538 14.4119 9.02456 13.7653 8.75518C12.176 8.18948 10.5597 8.02785 8.97037 8.29723C8.97037 8.02785 8.97037 7.78541 8.97037 7.46216C9.23975 7.32747 9.64382 7.3544 9.96708 7.30053C10.8291 7.30053 11.6911 7.30053 12.6339 7.51603C13.4151 7.65072 14.5465 8.08173 15.0314 8.35111C15.0314 8.67437 15.0314 8.99762 15.0314 9.34782H15.0045ZM15.0045 7.81235C15.0045 7.86623 15.0314 7.89316 14.9506 7.9201C14.1694 7.51603 12.9841 7.1389 11.9874 7.03115C10.9907 6.86952 9.96708 6.86952 8.91649 7.08502C8.7818 6.7887 8.62017 6.51932 8.29692 6.33076C8.45854 6.22301 8.86262 6.19607 9.15893 6.14219C9.45525 6.06138 9.72463 6.08832 10.021 6.03444C10.9907 6.03444 11.9874 6.08832 12.9841 6.33076C13.469 6.41157 13.9539 6.5732 14.4657 6.76177C14.6812 6.89646 14.9776 6.95033 15.0853 7.08502C15.0314 7.32746 15.0045 7.54297 15.0045 7.83929V7.81235ZM15.2469 6.70789C12.7148 5.60343 10.1287 5.30711 7.59653 6.08832C6.49207 6.08832 6.43819 6.73483 5.92637 7.11196C5.30679 7.65072 4.84885 8.2703 4.49865 9.07844C4.20233 9.75189 4.04071 10.3715 3.90602 10.991C3.63664 12.742 3.69051 14.4391 3.95989 16.1362C3.98683 16.5942 4.1754 17.079 4.1754 17.4831C4.09458 17.4562 4.06764 17.5909 4.01377 17.537C3.93295 17.5909 3.85214 17.5909 3.87908 17.537C3.8252 17.4831 3.87908 17.4562 3.79826 17.4023C3.23257 14.3583 2.88237 11.3412 4.06764 8.35111C4.41784 7.59685 4.82191 7.05808 5.30679 6.54626C5.68393 6.14219 6.14187 5.84587 6.62676 5.57649C7.08471 5.30711 8.05447 4.98386 8.70099 4.90304C10.2365 4.68754 11.745 4.74141 13.2266 5.09161C14.1963 5.30711 15.4624 5.792 15.9473 6.06138L16.0012 6.14219C15.5702 6.30382 15.4624 6.46545 15.22 6.68095L15.2469 6.70789ZM23.921 15.1126C23.9479 15.1934 23.8671 15.1395 23.8402 15.1126C23.1128 13.2808 22.6549 12.5534 21.9545 11.3143C20.7692 9.45557 19.3685 7.86623 17.5636 6.60014C17.402 6.33076 16.8093 6.14219 16.4591 5.89975C15.9743 5.63037 14.8159 5.06467 13.7384 4.79529C11.8797 4.33734 10.021 4.20265 8.10835 4.63366C7.46184 4.79529 6.59982 5.11855 6.27656 5.36099C5.5223 5.81893 4.87579 6.41157 4.3909 7.16584C3.69051 8.00092 2.96318 10.3984 2.99012 12.1224C2.90931 13.9542 3.17869 15.786 3.55582 17.6717C3.44807 17.6447 3.36726 17.7525 3.20563 17.6986C2.53218 14.4122 2.12811 11.0988 3.28644 7.73154C3.77133 6.54626 4.44478 5.60343 5.41455 4.8761C5.95331 4.52591 6.27656 4.28347 7.27327 3.93327C8.08141 3.66389 8.88955 3.55614 9.72463 3.50226C11.7719 3.44839 13.7923 3.71777 15.8934 4.63366C18.0215 5.57649 19.6917 6.95033 21.1194 8.64743C21.8198 9.48251 22.4663 10.3715 23.032 11.3682C23.3283 11.8531 23.5977 12.3379 23.8671 12.8498C24.0018 13.4693 23.8671 14.3583 23.921 15.1126ZM23.8671 12.1763C22.2239 9.13231 20.1227 6.5732 17.1326 4.8761C16.3245 4.39122 14.3849 3.58308 12.9572 3.39451C10.856 3.07125 8.7818 2.9635 6.73451 3.74471C5.71087 4.14878 5.11823 4.60672 4.47171 5.19936C3.77133 5.92669 3.31338 6.65401 2.85543 7.73154C2.28973 9.34782 2.12811 10.8563 2.12811 12.3918C2.18198 14.1967 2.39749 15.9476 2.80156 17.6986C2.23586 17.8602 2.42442 17.1329 2.23586 16.8097C2.12811 16.3517 2.10117 15.9207 2.02035 15.5166C1.88566 14.6277 1.77791 13.7926 1.75097 12.9575C1.67016 11.2065 1.75097 9.50945 2.20892 7.81235C2.63993 6.46545 2.96318 5.92669 3.42113 5.2263C4.06764 4.33734 4.87579 3.63695 5.89943 3.15207C6.54594 2.82881 7.56959 2.50556 8.35079 2.42474C10.6944 2.10148 13.0111 2.34393 15.3008 3.12513C16.7555 3.69083 17.3481 4.01409 18.2101 4.57978C20.3652 5.95362 22.0353 7.78541 23.4361 9.88658C23.5708 10.2098 23.894 10.3176 23.8402 10.8025C23.8402 11.2874 23.8402 11.7453 23.8402 12.2033H23.7863L23.8671 12.1763ZM23.8671 9.75189C22.2508 7.30053 20.2574 5.2263 17.6714 3.74471C16.9979 3.36757 15.5163 2.66718 14.1694 2.34393C12.3376 1.91292 10.5597 1.75129 8.75486 1.93986C7.78509 2.04761 6.57288 2.37087 5.81862 2.748C5.03741 3.12513 4.36396 3.61002 3.8252 4.22959C3.15175 4.95692 2.6938 5.68424 2.2628 6.73483C0.996707 10.3984 1.40078 13.9812 2.12811 17.537C1.58934 17.537 1.72403 16.9713 1.58934 16.6211C1.50853 16.217 1.45465 15.8399 1.37384 15.4628C1.23915 14.6546 1.15834 13.8734 1.07752 13.0922C0.942831 11.5029 0.96977 9.96739 1.21221 8.40499C1.37384 7.38134 1.72403 6.24994 2.12811 5.36099C2.31667 4.98386 2.53218 4.60672 2.77462 4.25653C3.44807 3.3137 4.25621 2.55943 5.27986 2.02067C5.7378 1.75129 6.8692 1.32028 7.67734 1.18559C8.75486 0.970087 9.77851 0.943149 10.7752 0.970087C11.4487 0.943149 11.5834 1.29334 11.9605 1.48191C12.2299 1.37416 12.3376 1.13172 12.7148 1.13172C13.1188 1.18559 13.469 1.26641 13.8462 1.34722C14.6274 1.50885 15.3816 1.75129 16.1089 2.02067C17.6714 2.64025 18.3179 3.07125 19.3415 3.71777C21.1194 4.95692 22.628 6.49239 23.894 8.21642C23.921 8.72824 23.894 9.21313 23.921 9.69801H23.8671V9.75189ZM23.921 7.62378H23.8402C22.6549 6.11525 21.3349 4.76835 19.7456 3.61002C18.9644 3.04432 18.1293 2.55943 17.2134 2.12842C15.9743 1.56272 14.5465 1.10478 13.1996 0.889273C13.1727 0.889273 13.0919 0.916211 13.1188 0.808459C13.5768 0.673769 14.4388 0.0541936 15.1392 0.431326C16.3783 0.781521 17.7791 1.4011 18.3987 1.77823C19.6109 2.42474 20.6884 3.20594 21.7121 4.0949C22.1969 4.52591 22.6818 4.98386 23.1398 5.46874C23.3283 5.73812 23.5708 5.92669 23.7863 6.24994C23.8671 6.70789 23.894 7.19277 23.894 7.65072L23.921 7.62378ZM23.5438 5.33405C22.0623 3.71777 20.3382 2.31699 18.264 1.26641C17.7252 0.970087 16.5938 0.485202 15.5702 0.161946V0.10807C16.5938 0.000317525 17.6175 0.0811316 18.695 0.37745C20.2574 0.916211 20.85 1.42803 21.7121 2.26311C22.1161 2.64025 22.4394 3.04432 22.7626 3.5292C23.059 4.04102 23.3014 4.39122 23.6247 5.33405H23.5438ZM9.83239 0.566016C9.563 0.619892 9.37444 0.592954 9.15893 0.592954C8.70099 0.673769 8.29692 0.673769 7.86591 0.754583C7.03083 0.889273 6.06106 1.21253 5.36067 1.53579C4.22927 2.10148 3.28644 2.88269 2.55911 3.8794C2.04729 4.63366 1.75097 5.11855 1.26609 6.41157C0.781203 7.94704 0.592637 9.48251 0.592637 10.991C0.538761 13.0653 0.835079 15.0856 1.26609 17.1329C0.646513 16.9713 0.727327 15.7591 0.511823 15.0856C0.377133 14.2236 0.296318 13.4155 0.242442 12.6343C0.0808141 10.991 0.161628 9.37476 0.404071 7.75847C0.565699 6.70789 0.942831 5.46874 1.3469 4.63366C1.53547 4.22959 1.72403 3.85246 1.99342 3.50226C2.63993 2.47862 3.47501 1.69741 4.49865 1.07784C4.9566 0.781521 5.92637 0.350512 6.89614 0.10807C7.97366 0.000317525 9.05118 0.10807 10.1018 0.51214H10.2903C10.3711 0.727645 9.94014 0.51214 9.83239 0.592954V0.566016ZM4.01377 0.916211C2.63993 1.77823 2.18198 2.50556 1.45465 3.63695C0.96977 4.36428 0.188566 6.43851 0.0808141 7.94704V8.00092L0.026938 7.7046V7.65072C-0.026938 6.81564 0.13469 6.0075 0.377133 5.17242C0.727327 4.17571 0.96977 3.82552 1.31996 3.28676C2.10117 2.26311 2.72074 1.6166 4.04071 0.781521V0.916211H4.01377ZM0.0808141 13.8465C0.13469 14.5738 0.242442 15.3011 0.404071 16.0285H0.323257C0.026938 15.4358 0 14.7354 0.0538761 14.1428L0 13.7118C0.161628 13.6848 0.0538761 13.7657 0.0808141 13.8465ZM18.5872 16.5672C18.5872 16.5672 18.5872 16.5672 18.5334 16.5403C18.2909 16.1901 18.0215 15.7321 17.9138 14.9779C17.9138 14.9779 17.9946 14.9779 17.9946 15.0317C18.1293 15.4089 18.3987 15.8938 18.6142 16.5133C18.6142 16.5403 18.5603 16.5942 18.5603 16.5942L18.5872 16.5672ZM20.2305 17.5909C19.6917 17.4562 19.4762 17.2945 19.2068 17.1329C18.9913 16.5403 18.7758 15.8129 18.5334 15.3819C18.3448 14.9779 18.1562 14.5469 17.9407 14.1697C17.9407 13.604 17.9138 13.0653 17.9407 12.5265C18.4256 13.2 18.8028 13.8734 19.1799 14.6007C19.4762 15.1934 20.015 16.4595 20.2843 17.51C20.3652 17.6178 20.2843 17.5909 20.2305 17.5909ZM20.6884 17.6986C20.419 16.5672 19.7456 14.9509 19.3685 14.3044C18.9644 13.4424 18.4795 12.6881 17.8869 11.9608C17.8869 11.5298 17.8869 11.0988 17.9407 10.6678C18.3717 11.0449 18.6681 11.5029 19.0183 11.9877C19.5031 12.6881 19.9342 13.4424 20.3652 14.2505C20.7154 14.9779 21.2811 16.2978 21.6312 17.51C21.4427 17.6986 21.0117 17.6447 20.6615 17.6717L20.6884 17.6986ZM22.0353 17.4562C21.7121 16.675 21.4157 15.7591 21.0386 14.924C20.7423 14.2505 20.4999 13.7118 20.1497 13.1461C19.5031 12.0147 18.7758 10.991 17.9138 10.1021C17.9138 9.69801 17.9138 9.32088 17.9138 8.94375H17.9946C19.557 10.3715 20.7692 12.1494 21.7121 14.1967C22.0623 14.924 22.5202 16.1093 22.7896 16.9982C22.5471 17.2137 22.3316 17.3215 22.0353 17.4562ZM23.1667 16.648C23.1667 16.648 23.059 16.648 23.032 16.675C22.7357 15.7052 22.2239 14.493 21.9006 13.8195C20.877 11.7184 19.584 9.85964 17.8869 8.40499C17.8869 8.02785 17.8869 7.65072 17.9407 7.30053C19.3415 8.37805 20.4729 9.72495 21.4696 11.2604C21.9545 12.0147 22.4125 12.8228 22.8165 13.6579C23.0051 14.1428 23.1937 14.493 23.463 15.1934C23.894 15.9476 23.2745 16.2978 23.1398 16.6211L23.1667 16.648ZM4.7411 11.3412C4.49865 12.4996 4.44478 13.6579 4.55253 14.8162C4.55253 15.6244 4.79497 16.4325 4.82191 17.1599C4.68722 17.1599 4.63334 17.2676 4.52559 17.2407C4.01377 14.5199 3.71745 11.8261 4.82191 9.15925C5.14517 8.56662 5.46842 8.02785 5.92637 7.59685H6.03412V8.59355C5.49536 9.267 5.06435 9.94046 4.71416 11.3682L4.7411 11.3412ZM6.06106 9.34782C6.06106 9.72495 6.06106 10.1021 6.06106 10.5062C5.68393 11.1796 5.36067 12.4457 5.33373 13.3885C5.22598 14.3852 5.33373 15.4089 5.44148 16.4325C5.38761 16.5403 5.30679 16.5942 5.19904 16.7288C5.11823 16.7558 5.1721 16.675 5.11823 16.5942C4.92966 15.3011 4.79497 14.035 4.90272 12.6881C4.9566 12.0416 5.06435 11.422 5.25292 10.7755C5.49536 9.96739 5.71087 9.69801 5.98025 9.21313C6.00718 9.21313 6.088 9.18619 6.06106 9.29394V9.34782ZM5.84556 15.8129V15.8668H5.7378V15.8129C5.60311 14.4122 5.57617 12.9845 6.00718 11.5837H6.088C5.95331 12.9845 6.27656 14.4122 5.84556 15.8129Z" fill="#313131"/>
<path d="M3.906 19.2325V19.837H2.7035V23.75H1.9625V19.837H0.7535V19.2325H3.906ZM7.89745 19.8305V21.1565H9.45745V21.761H7.89745V23.1455H9.65245V23.75H7.15645V19.226H9.65245V19.8305H7.89745ZM12.8181 21.4815C12.8181 21.0395 12.92 20.643 13.1236 20.292C13.3316 19.941 13.6111 19.668 13.9621 19.473C14.3175 19.2737 14.7053 19.174 15.1256 19.174C15.6066 19.174 16.0335 19.2932 16.4061 19.5315C16.7831 19.7655 17.0561 20.0992 17.2251 20.5325H16.3346C16.2176 20.2942 16.0551 20.1165 15.8471 19.9995C15.6391 19.8825 15.3986 19.824 15.1256 19.824C14.8266 19.824 14.5601 19.8912 14.3261 20.0255C14.0921 20.1598 13.908 20.3527 13.7736 20.604C13.6436 20.8553 13.5786 21.1478 13.5786 21.4815C13.5786 21.8152 13.6436 22.1077 13.7736 22.359C13.908 22.6103 14.0921 22.8053 14.3261 22.944C14.5601 23.0783 14.8266 23.1455 15.1256 23.1455C15.3986 23.1455 15.6391 23.087 15.8471 22.97C16.0551 22.853 16.2176 22.6753 16.3346 22.437H17.2251C17.0561 22.8703 16.7831 23.204 16.4061 23.438C16.0335 23.672 15.6066 23.789 15.1256 23.789C14.701 23.789 14.3131 23.6915 13.9621 23.4965C13.6111 23.2972 13.3316 23.022 13.1236 22.671C12.92 22.32 12.8181 21.9235 12.8181 21.4815ZM24.2 19.2325V23.75H23.459V21.774H21.3335V23.75H20.5925V19.2325H21.3335V21.1695H23.459V19.2325H24.2ZM31.387 23.75H30.646L28.4165 20.3765V23.75H27.6755V19.226H28.4165L30.646 22.593V19.226H31.387V23.75ZM36.9206 23.7955C36.5002 23.7955 36.1124 23.698 35.7571 23.503C35.4061 23.3037 35.1266 23.0285 34.9186 22.6775C34.7149 22.3222 34.6131 21.9235 34.6131 21.4815C34.6131 21.0395 34.7149 20.643 34.9186 20.292C35.1266 19.941 35.4061 19.668 35.7571 19.473C36.1124 19.2737 36.5002 19.174 36.9206 19.174C37.3452 19.174 37.7331 19.2737 38.0841 19.473C38.4394 19.668 38.7189 19.941 38.9226 20.292C39.1262 20.643 39.2281 21.0395 39.2281 21.4815C39.2281 21.9235 39.1262 22.3222 38.9226 22.6775C38.7189 23.0285 38.4394 23.3037 38.0841 23.503C37.7331 23.698 37.3452 23.7955 36.9206 23.7955ZM36.9206 23.152C37.2196 23.152 37.4861 23.0848 37.7201 22.9505C37.9541 22.8118 38.1361 22.6168 38.2661 22.3655C38.4004 22.1098 38.4676 21.8152 38.4676 21.4815C38.4676 21.1478 38.4004 20.8553 38.2661 20.604C38.1361 20.3527 37.9541 20.1598 37.7201 20.0255C37.4861 19.8912 37.2196 19.824 36.9206 19.824C36.6216 19.824 36.3551 19.8912 36.1211 20.0255C35.8871 20.1598 35.7029 20.3527 35.5686 20.604C35.4386 20.8553 35.3736 21.1478 35.3736 21.4815C35.3736 21.8152 35.4386 22.1098 35.5686 22.3655C35.7029 22.6168 35.8871 22.8118 36.1211 22.9505C36.3551 23.0848 36.6216 23.152 36.9206 23.152ZM43.1982 23.152H44.7257V23.75H42.4572V19.2325H43.1982V23.152ZM49.9059 23.7955C49.4856 23.7955 49.0977 23.698 48.7424 23.503C48.3914 23.3037 48.1119 23.0285 47.9039 22.6775C47.7002 22.3222 47.5984 21.9235 47.5984 21.4815C47.5984 21.0395 47.7002 20.643 47.9039 20.292C48.1119 19.941 48.3914 19.668 48.7424 19.473C49.0977 19.2737 49.4856 19.174 49.9059 19.174C50.3306 19.174 50.7184 19.2737 51.0694 19.473C51.4247 19.668 51.7042 19.941 51.9079 20.292C52.1116 20.643 52.2134 21.0395 52.2134 21.4815C52.2134 21.9235 52.1116 22.3222 51.9079 22.6775C51.7042 23.0285 51.4247 23.3037 51.0694 23.503C50.7184 23.698 50.3306 23.7955 49.9059 23.7955ZM49.9059 23.152C50.2049 23.152 50.4714 23.0848 50.7054 22.9505C50.9394 22.8118 51.1214 22.6168 51.2514 22.3655C51.3857 22.1098 51.4529 21.8152 51.4529 21.4815C51.4529 21.1478 51.3857 20.8553 51.2514 20.604C51.1214 20.3527 50.9394 20.1598 50.7054 20.0255C50.4714 19.8912 50.2049 19.824 49.9059 19.824C49.6069 19.824 49.3404 19.8912 49.1064 20.0255C48.8724 20.1598 48.6882 20.3527 48.5539 20.604C48.4239 20.8553 48.3589 21.1478 48.3589 21.4815C48.3589 21.8152 48.4239 22.1098 48.5539 22.3655C48.6882 22.6168 48.8724 22.8118 49.1064 22.9505C49.3404 23.0848 49.6069 23.152 49.9059 23.152ZM58.7121 20.5325C58.5951 20.3072 58.4326 20.1382 58.2246 20.0255C58.0166 19.9085 57.7761 19.85 57.5031 19.85C57.2041 19.85 56.9376 19.9172 56.7036 20.0515C56.4696 20.1858 56.2854 20.3765 56.1511 20.6235C56.0211 20.8705 55.9561 21.1565 55.9561 21.4815C55.9561 21.8065 56.0211 22.0947 56.1511 22.346C56.2854 22.593 56.4696 22.7837 56.7036 22.918C56.9376 23.0523 57.2041 23.1195 57.5031 23.1195C57.9061 23.1195 58.2332 23.0068 58.4846 22.7815C58.7359 22.5562 58.8897 22.2507 58.9461 21.865H57.2496V21.2735H59.7391V21.852C59.6914 22.203 59.5657 22.5258 59.3621 22.8205C59.1627 23.1152 58.9006 23.3513 58.5756 23.529C58.2549 23.7023 57.8974 23.789 57.5031 23.789C57.0784 23.789 56.6906 23.6915 56.3396 23.4965C55.9886 23.2972 55.7091 23.022 55.5011 22.671C55.2974 22.32 55.1956 21.9235 55.1956 21.4815C55.1956 21.0395 55.2974 20.643 55.5011 20.292C55.7091 19.941 55.9886 19.668 56.3396 19.473C56.6949 19.2737 57.0827 19.174 57.5031 19.174C57.9841 19.174 58.4109 19.2932 58.7836 19.5315C59.1606 19.7655 59.4336 20.0992 59.6026 20.5325H58.7121ZM63.7109 19.2325V23.75H62.9699V19.2325H63.7109ZM67.9248 19.8305V21.1565H69.4848V21.761H67.9248V23.1455H69.6798V23.75H67.1838V19.226H69.6798V19.8305H67.9248ZM74.581 23.7955C74.2776 23.7955 74.0046 23.7435 73.762 23.6395C73.5193 23.5312 73.3286 23.3795 73.19 23.1845C73.0513 22.9895 72.982 22.762 72.982 22.502H73.775C73.7923 22.697 73.8681 22.8573 74.0025 22.983C74.1411 23.1087 74.334 23.1715 74.581 23.1715C74.8366 23.1715 75.036 23.1108 75.179 22.9895C75.322 22.8638 75.3935 22.7035 75.3935 22.5085C75.3935 22.3568 75.348 22.2333 75.257 22.138C75.1703 22.0427 75.0598 21.969 74.9255 21.917C74.7955 21.865 74.6135 21.8087 74.3795 21.748C74.0848 21.67 73.8443 21.592 73.658 21.514C73.476 21.4317 73.32 21.306 73.19 21.137C73.06 20.968 72.995 20.7427 72.995 20.461C72.995 20.201 73.06 19.9735 73.19 19.7785C73.32 19.5835 73.502 19.434 73.736 19.33C73.97 19.226 74.2408 19.174 74.5485 19.174C74.9861 19.174 75.3436 19.2845 75.621 19.5055C75.9026 19.7222 76.0586 20.0212 76.089 20.4025H75.27C75.257 20.2378 75.179 20.097 75.036 19.98C74.893 19.863 74.7045 19.8045 74.4705 19.8045C74.2581 19.8045 74.0848 19.8587 73.9505 19.967C73.8161 20.0753 73.749 20.2313 73.749 20.435C73.749 20.5737 73.7901 20.6885 73.8725 20.7795C73.9591 20.8662 74.0675 20.9355 74.1975 20.9875C74.3275 21.0395 74.5051 21.0958 74.7305 21.1565C75.0295 21.2388 75.2721 21.3212 75.4585 21.4035C75.6491 21.4858 75.8095 21.6137 75.9395 21.787C76.0738 21.956 76.141 22.1835 76.141 22.4695C76.141 22.6992 76.0781 22.9158 75.9525 23.1195C75.8311 23.3232 75.6513 23.4878 75.413 23.6135C75.179 23.7348 74.9016 23.7955 74.581 23.7955Z" fill="#313131"/>
</svg>
