<svg width="131" height="50" viewBox="0 0 131 50" fill="none" xmlns="http://www.w3.org/2000/svg">
<rect x="0.0078125" width="130.432" height="49.6015" rx="4" fill="#837E8C"/>
<path d="M37.4398 30.6934C37.0398 31.9755 36.409 33.2576 35.5474 34.5397C34.2242 36.5501 32.9062 37.5553 31.5933 37.5553C31.0907 37.5553 30.3727 37.3912 29.4394 37.063C28.5573 36.7347 27.7828 36.5706 27.1161 36.5706C26.4905 36.5706 25.7622 36.7399 24.9314 37.0784C24.1006 37.4271 23.4236 37.6015 22.9005 37.6015C21.3415 37.6015 19.7978 36.2732 18.2695 33.6166C16.7617 30.9395 16.0078 28.3599 16.0078 25.8777C16.0078 23.5391 16.5873 21.6211 17.7464 20.1235C18.9054 18.6465 20.3619 17.908 22.1159 17.908C22.8544 17.908 23.7621 18.0619 24.8391 18.3696C25.9058 18.6773 26.6136 18.8312 26.9623 18.8312C27.4239 18.8312 28.1572 18.6568 29.1624 18.3081C30.2086 17.9593 31.0959 17.7849 31.8241 17.7849C33.0447 17.7849 34.1371 18.1183 35.1012 18.785C35.6346 19.1543 36.1679 19.6671 36.7013 20.3236C35.891 21.0108 35.3064 21.6159 34.9474 22.139C34.2807 23.1032 33.9473 24.1648 33.9473 25.3238C33.9473 26.5957 34.3012 27.7394 35.0089 28.7548C35.7166 29.7702 36.5269 30.4164 37.4398 30.6934ZM31.6549 12.6462C31.6549 13.2719 31.5061 13.9693 31.2087 14.7386C30.901 15.5079 30.424 16.2156 29.7778 16.8618C29.224 17.4157 28.6701 17.7849 28.1162 17.9696C27.7367 18.0824 27.2033 18.1696 26.5161 18.2311C26.5469 16.7028 26.9469 15.3848 27.7162 14.2771C28.4752 13.1796 29.7573 12.4205 31.5626 12C31.5728 12.0308 31.5856 12.0872 31.601 12.1692C31.6164 12.2513 31.6292 12.3077 31.6395 12.3385C31.6395 12.3795 31.642 12.4308 31.6472 12.4923C31.6523 12.5539 31.6549 12.6052 31.6549 12.6462Z" fill="#E6E1E1"/>
<path d="M49.6914 20.002H48.0755V14.7656H49.763C50.271 14.7656 50.7056 14.8704 51.067 15.0801C51.4283 15.288 51.7053 15.5872 51.8979 15.9775C52.0906 16.3662 52.1869 16.8315 52.1869 17.3735C52.1869 17.919 52.0897 18.3886 51.8954 18.7824C51.7011 19.1744 51.4181 19.4761 51.0465 19.6875C50.6749 19.8971 50.2232 20.002 49.6914 20.002ZM48.7096 19.4395H49.6505C50.0835 19.4395 50.4423 19.3559 50.7269 19.1889C51.0116 19.0218 51.2238 18.7841 51.3636 18.4755C51.5033 18.167 51.5732 17.7997 51.5732 17.3735C51.5732 16.9508 51.5042 16.5869 51.3661 16.2818C51.2281 15.975 51.0218 15.7397 50.7474 15.5761C50.4729 15.4108 50.1312 15.3281 49.7221 15.3281H48.7096V19.4395ZM54.7641 20.0838C54.4096 20.0838 54.0985 19.9994 53.8309 19.8306C53.565 19.6619 53.357 19.4258 53.207 19.1224C53.0587 18.819 52.9846 18.4645 52.9846 18.0588C52.9846 17.6497 53.0587 17.2926 53.207 16.9875C53.357 16.6824 53.565 16.4454 53.8309 16.2767C54.0985 16.1079 54.4096 16.0235 54.7641 16.0235C55.1187 16.0235 55.4289 16.1079 55.6948 16.2767C55.9624 16.4454 56.1704 16.6824 56.3187 16.9875C56.4687 17.2926 56.5437 17.6497 56.5437 18.0588C56.5437 18.4645 56.4687 18.819 56.3187 19.1224C56.1704 19.4258 55.9624 19.6619 55.6948 19.8306C55.4289 19.9994 55.1187 20.0838 54.7641 20.0838ZM54.7641 19.5417C55.0335 19.5417 55.255 19.4727 55.4289 19.3346C55.6028 19.1966 55.7315 19.015 55.815 18.79C55.8985 18.565 55.9403 18.3213 55.9403 18.0588C55.9403 17.7963 55.8985 17.5517 55.815 17.325C55.7315 17.0983 55.6028 16.915 55.4289 16.7752C55.255 16.6355 55.0335 16.5656 54.7641 16.5656C54.4948 16.5656 54.2732 16.6355 54.0994 16.7752C53.9255 16.915 53.7968 17.0983 53.7133 17.325C53.6298 17.5517 53.588 17.7963 53.588 18.0588C53.588 18.3213 53.6298 18.565 53.7133 18.79C53.7968 19.015 53.9255 19.1966 54.0994 19.3346C54.2732 19.4727 54.4948 19.5417 54.7641 19.5417ZM58.221 20.002L57.0244 16.0747H57.6585L58.5073 19.0815H58.5482L59.3869 16.0747H60.0312L60.8596 19.0713H60.9005L61.7494 16.0747H62.3835L61.1869 20.002H60.5937L59.7346 16.9849H59.6732L58.8141 20.002H58.221ZM63.7846 17.6395V20.002H63.1812V16.0747H63.7641V16.6883H63.8153C63.9073 16.4889 64.0471 16.3287 64.2346 16.2076C64.4221 16.0849 64.6641 16.0235 64.9607 16.0235C65.2266 16.0235 65.4593 16.0781 65.6587 16.1872C65.8582 16.2946 66.0133 16.4582 66.1241 16.6781C66.2349 16.8963 66.2903 17.1724 66.2903 17.5065V20.002H65.6869V17.5474C65.6869 17.2389 65.6067 16.9985 65.4465 16.8264C65.2863 16.6525 65.0664 16.5656 64.7869 16.5656C64.5942 16.5656 64.4221 16.6074 64.2704 16.6909C64.1204 16.7744 64.0019 16.8963 63.915 17.0565C63.8281 17.2167 63.7846 17.411 63.7846 17.6395ZM67.9963 14.7656V20.002H67.3929V14.7656H67.9963ZM70.6969 20.0838C70.3424 20.0838 70.0313 19.9994 69.7637 19.8306C69.4978 19.6619 69.2898 19.4258 69.1398 19.1224C68.9916 18.819 68.9174 18.4645 68.9174 18.0588C68.9174 17.6497 68.9916 17.2926 69.1398 16.9875C69.2898 16.6824 69.4978 16.4454 69.7637 16.2767C70.0313 16.1079 70.3424 16.0235 70.6969 16.0235C71.0515 16.0235 71.3617 16.1079 71.6276 16.2767C71.8952 16.4454 72.1032 16.6824 72.2515 16.9875C72.4015 17.2926 72.4765 17.6497 72.4765 18.0588C72.4765 18.4645 72.4015 18.819 72.2515 19.1224C72.1032 19.4258 71.8952 19.6619 71.6276 19.8306C71.3617 19.9994 71.0515 20.0838 70.6969 20.0838ZM70.6969 19.5417C70.9663 19.5417 71.1879 19.4727 71.3617 19.3346C71.5356 19.1966 71.6643 19.015 71.7478 18.79C71.8313 18.565 71.8731 18.3213 71.8731 18.0588C71.8731 17.7963 71.8313 17.5517 71.7478 17.325C71.6643 17.0983 71.5356 16.915 71.3617 16.7752C71.1879 16.6355 70.9663 16.5656 70.6969 16.5656C70.4276 16.5656 70.206 16.6355 70.0322 16.7752C69.8583 16.915 69.7296 17.0983 69.6461 17.325C69.5626 17.5517 69.5208 17.7963 69.5208 18.0588C69.5208 18.3213 69.5626 18.565 69.6461 18.79C69.7296 19.015 69.8583 19.1966 70.0322 19.3346C70.206 19.4727 70.4276 19.5417 70.6969 19.5417ZM74.5533 20.094C74.3044 20.094 74.0786 20.0471 73.8757 19.9534C73.6729 19.8579 73.5118 19.7207 73.3925 19.5417C73.2732 19.361 73.2135 19.1429 73.2135 18.8872C73.2135 18.6622 73.2578 18.4798 73.3465 18.34C73.4351 18.1985 73.5536 18.0877 73.7018 18.0076C73.8501 17.9275 74.0138 17.8679 74.1928 17.8287C74.3734 17.7877 74.555 17.7554 74.7374 17.7315C74.976 17.7008 75.1695 17.6778 75.3178 17.6625C75.4678 17.6454 75.5768 17.6173 75.645 17.5781C75.7149 17.5389 75.7499 17.4707 75.7499 17.3735V17.3531C75.7499 17.1008 75.6808 16.9048 75.5428 16.765C75.4064 16.6252 75.1993 16.5554 74.9215 16.5554C74.6334 16.5554 74.4075 16.6184 74.2439 16.7446C74.0803 16.8707 73.9652 17.0054 73.8987 17.1485L73.326 16.944C73.4283 16.7054 73.5646 16.5196 73.7351 16.3866C73.9072 16.252 74.0947 16.1582 74.2976 16.1054C74.5021 16.0508 74.7033 16.0235 74.901 16.0235C75.0271 16.0235 75.172 16.0389 75.3357 16.0696C75.501 16.0985 75.6604 16.1591 75.8138 16.2511C75.9689 16.3431 76.0976 16.4821 76.1999 16.6679C76.3021 16.8537 76.3533 17.1025 76.3533 17.4145V20.002H75.7499V19.4701H75.7192C75.6783 19.5554 75.6101 19.6466 75.5146 19.7437C75.4192 19.8409 75.2922 19.9235 75.1337 19.9917C74.9751 20.0599 74.7817 20.094 74.5533 20.094ZM74.6453 19.552C74.884 19.552 75.0851 19.5051 75.2487 19.4113C75.4141 19.3176 75.5385 19.1966 75.622 19.0483C75.7072 18.9 75.7499 18.744 75.7499 18.5804V18.0281C75.7243 18.0588 75.668 18.0869 75.5811 18.1125C75.4959 18.1363 75.397 18.1576 75.2845 18.1764C75.1737 18.1934 75.0655 18.2088 74.9598 18.2224C74.8558 18.2343 74.7715 18.2446 74.7067 18.2531C74.5499 18.2735 74.4033 18.3068 74.2669 18.3528C74.1322 18.3971 74.0232 18.4645 73.9396 18.5548C73.8578 18.6434 73.8169 18.7645 73.8169 18.9179C73.8169 19.1275 73.8945 19.286 74.0496 19.3934C74.2064 19.4991 74.405 19.552 74.6453 19.552ZM78.9376 20.0838C78.6103 20.0838 78.3214 20.0011 78.0708 19.8358C77.8202 19.6687 77.6242 19.4335 77.4827 19.1301C77.3413 18.825 77.2705 18.4645 77.2705 18.0485C77.2705 17.636 77.3413 17.2781 77.4827 16.9747C77.6242 16.6713 77.8211 16.4369 78.0734 16.2716C78.3256 16.1062 78.6171 16.0235 78.9478 16.0235C79.2035 16.0235 79.4055 16.0662 79.5538 16.1514C79.7038 16.2349 79.818 16.3304 79.8964 16.4377C79.9765 16.5434 80.0387 16.6304 80.083 16.6985H80.1342V14.7656H80.7376V20.002H80.1546V19.3985H80.083C80.0387 19.4701 79.9756 19.5605 79.8938 19.6696C79.812 19.777 79.6952 19.8733 79.5435 19.9585C79.3918 20.042 79.1898 20.0838 78.9376 20.0838ZM79.0194 19.5417C79.2614 19.5417 79.466 19.4787 79.633 19.3525C79.8001 19.2247 79.9271 19.0483 80.014 18.8233C80.1009 18.5966 80.1444 18.3349 80.1444 18.0383C80.1444 17.7451 80.1018 17.4886 80.0166 17.2687C79.9313 17.0471 79.8052 16.875 79.6381 16.7522C79.4711 16.6278 79.2648 16.5656 79.0194 16.5656C78.7637 16.5656 78.5506 16.6312 78.3802 16.7625C78.2114 16.892 78.0844 17.0684 77.9992 17.2917C77.9157 17.5133 77.8739 17.7622 77.8739 18.0383C77.8739 18.3179 77.9166 18.5718 78.0018 18.8002C78.0887 19.027 78.2166 19.2076 78.3853 19.3423C78.5558 19.4752 78.7671 19.5417 79.0194 19.5417ZM85.5469 20.0838C85.1924 20.0838 84.8813 19.9994 84.6137 19.8306C84.3478 19.6619 84.1398 19.4258 83.9898 19.1224C83.8415 18.819 83.7674 18.4645 83.7674 18.0588C83.7674 17.6497 83.8415 17.2926 83.9898 16.9875C84.1398 16.6824 84.3478 16.4454 84.6137 16.2767C84.8813 16.1079 85.1924 16.0235 85.5469 16.0235C85.9015 16.0235 86.2117 16.1079 86.4776 16.2767C86.7452 16.4454 86.9532 16.6824 87.1015 16.9875C87.2515 17.2926 87.3265 17.6497 87.3265 18.0588C87.3265 18.4645 87.2515 18.819 87.1015 19.1224C86.9532 19.4258 86.7452 19.6619 86.4776 19.8306C86.2117 19.9994 85.9015 20.0838 85.5469 20.0838ZM85.5469 19.5417C85.8163 19.5417 86.0379 19.4727 86.2117 19.3346C86.3856 19.1966 86.5143 19.015 86.5978 18.79C86.6813 18.565 86.7231 18.3213 86.7231 18.0588C86.7231 17.7963 86.6813 17.5517 86.5978 17.325C86.5143 17.0983 86.3856 16.915 86.2117 16.7752C86.0379 16.6355 85.8163 16.5656 85.5469 16.5656C85.2776 16.5656 85.056 16.6355 84.8822 16.7752C84.7083 16.915 84.5796 17.0983 84.4961 17.325C84.4126 17.5517 84.3708 17.7963 84.3708 18.0588C84.3708 18.3213 84.4126 18.565 84.4961 18.79C84.5796 19.015 84.7083 19.1966 84.8822 19.3346C85.056 19.4727 85.2776 19.5417 85.5469 19.5417ZM88.851 17.6395V20.002H88.2476V16.0747H88.8305V16.6883H88.8817C88.9737 16.4889 89.1135 16.3287 89.301 16.2076C89.4885 16.0849 89.7305 16.0235 90.0271 16.0235C90.293 16.0235 90.5257 16.0781 90.7251 16.1872C90.9246 16.2946 91.0797 16.4582 91.1905 16.6781C91.3013 16.8963 91.3567 17.1724 91.3567 17.5065V20.002H90.7533V17.5474C90.7533 17.2389 90.6732 16.9985 90.5129 16.8264C90.3527 16.6525 90.1328 16.5656 89.8533 16.5656C89.6607 16.5656 89.4885 16.6074 89.3368 16.6909C89.1868 16.7744 89.0683 16.8963 88.9814 17.0565C88.8945 17.2167 88.851 17.411 88.851 17.6395ZM96.1923 16.0747V16.586H94.157V16.0747H96.1923ZM94.7502 15.1338H95.3536V18.877C95.3536 19.0474 95.3783 19.1752 95.4278 19.2605C95.4789 19.344 95.5437 19.4002 95.6221 19.4292C95.7022 19.4565 95.7866 19.4701 95.8752 19.4701C95.9417 19.4701 95.9962 19.4667 96.0389 19.4599C96.0815 19.4514 96.1156 19.4446 96.1411 19.4395L96.2639 19.9815C96.2229 19.9968 96.1658 20.0122 96.0925 20.0275C96.0192 20.0446 95.9264 20.0531 95.8139 20.0531C95.6434 20.0531 95.4764 20.0164 95.3127 19.9431C95.1508 19.8699 95.0161 19.7582 94.9087 19.6082C94.8031 19.4582 94.7502 19.269 94.7502 19.0406V15.1338ZM97.7877 17.6395V20.002H97.1843V14.7656H97.7877V16.6883H97.8389C97.9309 16.4855 98.069 16.3244 98.2531 16.2051C98.4389 16.0841 98.686 16.0235 98.9945 16.0235C99.2621 16.0235 99.4965 16.0772 99.6977 16.1846C99.8988 16.2903 100.055 16.4531 100.166 16.673C100.278 16.8912 100.334 17.169 100.334 17.5065V20.002H99.7309V17.5474C99.7309 17.2355 99.6499 16.9943 99.488 16.8238C99.3278 16.6517 99.1053 16.5656 98.8207 16.5656C98.6229 16.5656 98.4457 16.6074 98.2889 16.6909C98.1337 16.7744 98.011 16.8963 97.9207 17.0565C97.832 17.2167 97.7877 17.411 97.7877 17.6395ZM103.085 20.0838C102.706 20.0838 102.38 20.0002 102.106 19.8332C101.833 19.6645 101.622 19.4292 101.474 19.1275C101.327 18.8241 101.254 18.4713 101.254 18.069C101.254 17.6667 101.327 17.3122 101.474 17.0054C101.622 16.6968 101.829 16.4565 102.093 16.2843C102.359 16.1105 102.669 16.0235 103.023 16.0235C103.228 16.0235 103.43 16.0576 103.629 16.1258C103.829 16.194 104.01 16.3048 104.174 16.4582C104.338 16.6099 104.468 16.811 104.565 17.0616C104.662 17.3122 104.711 17.6207 104.711 17.9872V18.2429H101.684V17.7213H104.097C104.097 17.4997 104.053 17.302 103.964 17.1281C103.877 16.9542 103.753 16.817 103.591 16.7164C103.431 16.6159 103.242 16.5656 103.023 16.5656C102.783 16.5656 102.575 16.6252 102.4 16.7446C102.226 16.8622 102.092 17.0156 101.998 17.2048C101.904 17.394 101.858 17.5968 101.858 17.8133V18.161C101.858 18.4576 101.909 18.7091 102.011 18.9153C102.115 19.1199 102.259 19.2758 102.443 19.3832C102.627 19.4889 102.841 19.5417 103.085 19.5417C103.243 19.5417 103.387 19.5196 103.514 19.4752C103.644 19.4292 103.756 19.361 103.849 19.2707C103.943 19.1787 104.015 19.0645 104.067 18.9281L104.65 19.0917C104.588 19.2895 104.485 19.4633 104.34 19.6133C104.195 19.7616 104.016 19.8775 103.803 19.961C103.59 20.0429 103.351 20.0838 103.085 20.0838Z" fill="#E6E1E1"/>
<path d="M48.8562 34.6016H47.7482L50.9528 25.8743H52.0437L55.2482 34.6016H54.1403L51.5323 27.255H51.4641L48.8562 34.6016ZM49.2653 31.1925H53.7312V32.13H49.2653V31.1925ZM56.4712 37.0561V28.0561H57.4428V29.0959H57.5621C57.636 28.9822 57.7383 28.8374 57.869 28.6612C58.0025 28.4822 58.1928 28.3232 58.44 28.1839C58.69 28.0419 59.0281 27.9709 59.4542 27.9709C60.0053 27.9709 60.4911 28.1087 60.9116 28.3842C61.332 28.6598 61.6602 29.0504 61.896 29.5561C62.1317 30.0618 62.2496 30.6584 62.2496 31.3459C62.2496 32.0391 62.1317 32.6399 61.896 33.1484C61.6602 33.6541 61.3335 34.0462 60.9158 34.3246C60.4982 34.6001 60.0167 34.7379 59.4712 34.7379C59.0508 34.7379 58.7141 34.6683 58.4613 34.5291C58.2085 34.3871 58.0138 34.2266 57.8775 34.0476C57.7411 33.8658 57.636 33.7152 57.5621 33.5959H57.4769V37.0561H56.4712ZM57.4599 31.3288C57.4599 31.8232 57.5323 32.2592 57.6772 32.6371C57.8221 33.0121 58.0337 33.3061 58.3121 33.5192C58.5906 33.7294 58.9315 33.8345 59.3349 33.8345C59.7553 33.8345 60.1062 33.7237 60.3874 33.5021C60.6715 33.2777 60.8846 32.9766 61.0266 32.5987C61.1715 32.218 61.244 31.7947 61.244 31.3288C61.244 30.8686 61.1729 30.4538 61.0309 30.0845C60.8917 29.7124 60.68 29.4183 60.396 29.2024C60.1147 28.9837 59.761 28.8743 59.3349 28.8743C58.9258 28.8743 58.582 28.978 58.3036 29.1854C58.0252 29.3899 57.815 29.6768 57.6729 30.0462C57.5309 30.4126 57.4599 30.8402 57.4599 31.3288ZM63.7837 37.0561V28.0561H64.7553V29.0959H64.8746C64.9485 28.9822 65.0508 28.8374 65.1815 28.6612C65.315 28.4822 65.5053 28.3232 65.7525 28.1839C66.0025 28.0419 66.3406 27.9709 66.7667 27.9709C67.3178 27.9709 67.8036 28.1087 68.2241 28.3842C68.6445 28.6598 68.9727 29.0504 69.2085 29.5561C69.4442 30.0618 69.5621 30.6584 69.5621 31.3459C69.5621 32.0391 69.4442 32.6399 69.2085 33.1484C68.9727 33.6541 68.646 34.0462 68.2283 34.3246C67.8107 34.6001 67.3292 34.7379 66.7837 34.7379C66.3633 34.7379 66.0266 34.6683 65.7738 34.5291C65.521 34.3871 65.3263 34.2266 65.19 34.0476C65.0536 33.8658 64.9485 33.7152 64.8746 33.5959H64.7894V37.0561H63.7837ZM64.7724 31.3288C64.7724 31.8232 64.8448 32.2592 64.9897 32.6371C65.1346 33.0121 65.3462 33.3061 65.6246 33.5192C65.9031 33.7294 66.244 33.8345 66.6474 33.8345C67.0678 33.8345 67.4187 33.7237 67.6999 33.5021C67.984 33.2777 68.1971 32.9766 68.3391 32.5987C68.484 32.218 68.5565 31.7947 68.5565 31.3288C68.5565 30.8686 68.4854 30.4538 68.3434 30.0845C68.2042 29.7124 67.9925 29.4183 67.7085 29.2024C67.4272 28.9837 67.0735 28.8743 66.6474 28.8743C66.2383 28.8743 65.8945 28.978 65.6161 29.1854C65.3377 29.3899 65.1275 29.6768 64.9854 30.0462C64.8434 30.4126 64.7724 30.8402 64.7724 31.3288ZM72.1019 25.8743V34.6016H71.0962V25.8743H72.1019ZM76.6882 34.7379C76.0575 34.7379 75.5135 34.5987 75.0561 34.3203C74.6016 34.0391 74.2507 33.647 74.0036 33.1442C73.7592 32.6385 73.6371 32.0504 73.6371 31.38C73.6371 30.7095 73.7592 30.1186 74.0036 29.6072C74.2507 29.093 74.5945 28.6925 75.0348 28.4055C75.478 28.1158 75.995 27.9709 76.5859 27.9709C76.9268 27.9709 77.2635 28.0277 77.5959 28.1413C77.9283 28.255 78.2308 28.4396 78.5036 28.6953C78.7763 28.9482 78.9936 29.2834 79.1555 29.701C79.3175 30.1186 79.3984 30.6328 79.3984 31.2436V31.6697H74.353V30.8004H78.3757C78.3757 30.4311 78.3018 30.1016 78.1541 29.8118C78.0092 29.522 77.8018 29.2933 77.532 29.1257C77.2649 28.9581 76.9496 28.8743 76.5859 28.8743C76.1854 28.8743 75.8388 28.9737 75.5462 29.1726C75.2564 29.3686 75.0334 29.6243 74.8771 29.9396C74.7209 30.255 74.6428 30.593 74.6428 30.9538V31.5334C74.6428 32.0277 74.728 32.4467 74.8984 32.7905C75.0717 33.1314 75.3118 33.3913 75.6186 33.5703C75.9254 33.7464 76.282 33.8345 76.6882 33.8345C76.9524 33.8345 77.1911 33.7976 77.4041 33.7237C77.62 33.647 77.8061 33.5334 77.9624 33.3828C78.1186 33.2294 78.2393 33.0391 78.3246 32.8118L79.2962 33.0845C79.1939 33.4141 79.022 33.7038 78.7805 33.9538C78.5391 34.201 78.2408 34.3942 77.8857 34.5334C77.5305 34.6697 77.1314 34.7379 76.6882 34.7379ZM89.2124 28.0561C89.1612 27.6243 88.9538 27.2891 88.5902 27.0504C88.2266 26.8118 87.7805 26.6925 87.2521 26.6925C86.8658 26.6925 86.5277 26.755 86.2379 26.88C85.951 27.005 85.7266 27.1768 85.5646 27.3956C85.4055 27.6143 85.326 27.8629 85.326 28.1413C85.326 28.3743 85.3814 28.5746 85.4922 28.7422C85.6058 28.907 85.7507 29.0447 85.9268 29.1555C86.103 29.2635 86.2876 29.353 86.4808 29.424C86.674 29.4922 86.8516 29.5476 87.0135 29.5902L87.8999 29.8288C88.1271 29.8885 88.38 29.9709 88.6584 30.076C88.9396 30.1811 89.2081 30.3246 89.4638 30.5064C89.7223 30.6854 89.9354 30.9155 90.103 31.1967C90.2706 31.478 90.3544 31.8232 90.3544 32.2322C90.3544 32.7038 90.2308 33.13 89.9837 33.5107C89.7393 33.8913 89.3814 34.1939 88.9098 34.4183C88.4411 34.6428 87.8714 34.755 87.201 34.755C86.576 34.755 86.0348 34.6541 85.5774 34.4524C85.1229 34.2507 84.7649 33.9695 84.5036 33.6087C84.245 33.2479 84.0987 32.8288 84.0646 32.3516H85.1555C85.1839 32.6811 85.2947 32.9538 85.4879 33.1697C85.6839 33.3828 85.9311 33.5419 86.2294 33.647C86.5305 33.7493 86.8544 33.8004 87.201 33.8004C87.6044 33.8004 87.9666 33.7351 88.2876 33.6044C88.6087 33.4709 88.8629 33.2862 89.0504 33.0504C89.2379 32.8118 89.3317 32.5334 89.3317 32.2152C89.3317 31.9254 89.2507 31.6896 89.0888 31.5078C88.9268 31.326 88.7138 31.1783 88.4496 31.0646C88.1854 30.951 87.8999 30.8516 87.593 30.7663L86.5192 30.4595C85.8374 30.2635 85.2976 29.9837 84.8999 29.62C84.5021 29.2564 84.3033 28.7805 84.3033 28.1925C84.3033 27.7038 84.4354 27.2777 84.6996 26.9141C84.9666 26.5476 85.3246 26.2635 85.7734 26.0618C86.2251 25.8572 86.7294 25.755 87.2862 25.755C87.8487 25.755 88.3487 25.8558 88.7862 26.0575C89.2237 26.2564 89.5703 26.5291 89.826 26.8757C90.0845 27.2223 90.2209 27.6158 90.2351 28.0561H89.2124ZM94.8022 28.0561V28.9084H91.4102V28.0561H94.8022ZM92.3988 26.4879H93.4045V32.7266C93.4045 33.0107 93.4457 33.2237 93.5281 33.3658C93.6133 33.505 93.7212 33.5987 93.8519 33.647C93.9854 33.6925 94.1261 33.7152 94.2738 33.7152C94.3846 33.7152 94.4755 33.7095 94.5465 33.6982C94.6175 33.6839 94.6744 33.6726 94.717 33.6641L94.9215 34.5675C94.8533 34.593 94.7582 34.6186 94.636 34.6442C94.5138 34.6726 94.359 34.6868 94.1715 34.6868C93.8874 34.6868 93.609 34.6257 93.3363 34.5036C93.0664 34.3814 92.842 34.1953 92.663 33.9453C92.4869 33.6953 92.3988 33.38 92.3988 32.9993V26.4879ZM98.9038 34.7379C98.3129 34.7379 97.7944 34.5973 97.3484 34.3161C96.9052 34.0348 96.5586 33.6413 96.3086 33.1357C96.0614 32.63 95.9379 32.0391 95.9379 31.3629C95.9379 30.6811 96.0614 30.0859 96.3086 29.5774C96.5586 29.0689 96.9052 28.674 97.3484 28.3928C97.7944 28.1115 98.3129 27.9709 98.9038 27.9709C99.4947 27.9709 100.012 28.1115 100.455 28.3928C100.901 28.674 101.248 29.0689 101.495 29.5774C101.745 30.0859 101.87 30.6811 101.87 31.3629C101.87 32.0391 101.745 32.63 101.495 33.1357C101.248 33.6413 100.901 34.0348 100.455 34.3161C100.012 34.5973 99.4947 34.7379 98.9038 34.7379ZM98.9038 33.8345C99.3526 33.8345 99.7219 33.7195 100.012 33.4893C100.301 33.2592 100.516 32.9567 100.655 32.5817C100.794 32.2067 100.864 31.8004 100.864 31.3629C100.864 30.9254 100.794 30.5178 100.655 30.1399C100.516 29.7621 100.301 29.4567 100.012 29.2237C99.7219 28.9908 99.3526 28.8743 98.9038 28.8743C98.4549 28.8743 98.0856 28.9908 97.7958 29.2237C97.506 29.4567 97.2915 29.7621 97.1523 30.1399C97.0131 30.5178 96.9435 30.9254 96.9435 31.3629C96.9435 31.8004 97.0131 32.2067 97.1523 32.5817C97.2915 32.9567 97.506 33.2592 97.7958 33.4893C98.0856 33.7195 98.4549 33.8345 98.9038 33.8345ZM103.405 34.6016V28.0561H104.376V29.0447H104.445C104.564 28.7209 104.78 28.4581 105.092 28.2564C105.405 28.0547 105.757 27.9538 106.149 27.9538C106.223 27.9538 106.315 27.9553 106.426 27.9581C106.537 27.9609 106.621 27.9652 106.678 27.9709V28.9936C106.643 28.9851 106.565 28.9723 106.443 28.9553C106.324 28.9354 106.197 28.9254 106.064 28.9254C105.746 28.9254 105.462 28.9922 105.212 29.1257C104.964 29.2564 104.768 29.4382 104.624 29.6712C104.482 29.9013 104.411 30.1641 104.411 30.4595V34.6016H103.405ZM110.415 34.7379C109.784 34.7379 109.24 34.5987 108.783 34.3203C108.328 34.0391 107.977 33.647 107.73 33.1442C107.486 32.6385 107.364 32.0504 107.364 31.38C107.364 30.7095 107.486 30.1186 107.73 29.6072C107.977 29.093 108.321 28.6925 108.761 28.4055C109.205 28.1158 109.722 27.9709 110.312 27.9709C110.653 27.9709 110.99 28.0277 111.322 28.1413C111.655 28.255 111.957 28.4396 112.23 28.6953C112.503 28.9482 112.72 29.2834 112.882 29.701C113.044 30.1186 113.125 30.6328 113.125 31.2436V31.6697H108.08V30.8004H112.102C112.102 30.4311 112.028 30.1016 111.881 29.8118C111.736 29.522 111.528 29.2933 111.259 29.1257C110.991 28.9581 110.676 28.8743 110.312 28.8743C109.912 28.8743 109.565 28.9737 109.273 29.1726C108.983 29.3686 108.76 29.6243 108.604 29.9396C108.447 30.255 108.369 30.593 108.369 30.9538V31.5334C108.369 32.0277 108.455 32.4467 108.625 32.7905C108.798 33.1314 109.038 33.3913 109.345 33.5703C109.652 33.7464 110.009 33.8345 110.415 33.8345C110.679 33.8345 110.918 33.7976 111.131 33.7237C111.347 33.647 111.533 33.5334 111.689 33.3828C111.845 33.2294 111.966 33.0391 112.051 32.8118L113.023 33.0845C112.92 33.4141 112.749 33.7038 112.507 33.9538C112.266 34.201 111.967 34.3942 111.612 34.5334C111.257 34.6697 110.858 34.7379 110.415 34.7379Z" fill="#E6E1E1"/>
</svg>
