<svg width="281" height="280" viewBox="0 0 281 280" fill="none" xmlns="http://www.w3.org/2000/svg">
<g opacity="0.999998">
<path d="M133.234 224.04C202.438 231.044 238.103 214.02 240.233 172.969C243.425 111.393 189.64 118.045 173.976 101.816C158.312 85.5876 175.86 108.651 145.693 75.0209C125.581 52.6008 98.782 52.4857 65.2963 74.6763C38.2863 96.6594 35.3651 125.489 56.5317 161.164C77.6983 196.838 103.266 217.797 133.234 224.04Z" fill="#F6F6F6"/>
</g>
<mask id="mask0_6039_13835" style="mask-type:luminance" maskUnits="userSpaceOnUse" x="100" y="70" width="110" height="32">
<path d="M209.141 70.0439H100.231L100.168 101.186H209.078L209.141 70.0439Z" fill="white"/>
</mask>
<g mask="url(#mask0_6039_13835)">
<path d="M101.788 71.6242C115.744 71.6242 117.489 79.8733 117.489 88.1075V97.0911C117.489 98.5146 118.571 99.6713 119.903 99.6713L202.137 98.956C203.47 98.956 204.552 97.8003 204.552 96.3767V86.6918C204.552 77.8575 197.851 70.6943 189.586 70.6943C189.026 70.6943 101.204 71.6242 101.788 71.6242Z" fill="#E6E6E6"/>
<path d="M101.785 73.1324C101.785 74.4792 102.88 75.5721 104.228 75.5721C189.603 75.5721 189.619 75.5712 189.634 75.5721C195.229 75.5817 199.762 80.1542 199.771 85.7987V97.372H202.186C203.518 97.372 204.599 96.2817 204.599 94.9375V85.7987C204.635 77.4519 197.957 70.6569 189.683 70.6211H189.587H188.685C188.464 70.6342 188.248 70.6699 188.03 70.6935H104.224C102.877 70.6935 101.785 71.7856 101.785 73.1324Z" fill="#E6E6E6"/>
</g>
<mask id="mask1_6039_13835" style="mask-type:luminance" maskUnits="userSpaceOnUse" x="66" y="68" width="135" height="147">
<path d="M200.776 68.4727H66.793V214.361H200.776V68.4727Z" fill="white"/>
</mask>
<g mask="url(#mask1_6039_13835)">
<path d="M189.578 75.2718V70.6924H102.624C91.2301 70.7098 81.9979 80.0196 81.9805 91.5075V211.033C81.9805 212.376 83.0621 213.466 84.3941 213.466H158.845C170.224 213.43 179.434 204.124 179.441 192.651V85.781V85.6667C179.512 80.0693 184.028 75.2875 189.578 75.2797C189.601 75.2797 189.622 75.2727 189.644 75.2718H189.578Z" fill="white"/>
<path d="M102.575 70.6925C91.1802 70.7108 81.9471 80.0206 81.9297 91.5084V161.484L133.919 70.6279L102.575 70.6925Z" fill="#F0F0F0"/>
<path d="M81.9761 119.731V93.0503C81.9944 81.5616 91.2265 72.2527 102.621 72.2344H189.575M75.7969 210.157C80.9895 210.157 81.929 204.639 81.929 201.153C81.929 172.641 81.9761 152.486 81.9761 145.256M82.4305 127.883V131.088" stroke="#E6E6E6" stroke-width="7.2" stroke-miterlimit="10" stroke-linecap="round"/>
<path d="M189.575 70.6191H188.674C180.782 71.0998 174.621 77.6898 174.611 85.6667V85.8944V192.59C174.596 199.861 169.726 206.207 162.753 208.044C161.991 208.242 161.21 208.34 160.43 208.348V208.35H160.37H160.308H70.0469C73.6703 211.549 78.4102 213.493 83.6029 213.498H83.6352H109.659H158.844C159.374 213.498 160.194 213.498 160.726 213.417C161.664 213.33 162.593 213.173 163.508 212.946C172.856 210.751 179.475 202.353 179.488 192.671V85.7479V85.6345C179.557 80.3877 183.543 76.0447 188.722 75.5702C189.008 75.5545 189.555 75.5562 189.84 75.5702L189.575 70.6191Z" fill="#E6E6E6"/>
</g>
<mask id="mask2_6039_13835" style="mask-type:luminance" maskUnits="userSpaceOnUse" x="61" y="186" width="100" height="28">
<path d="M160.506 186.487H61.5586V213.926H160.506V186.487Z" fill="white"/>
</mask>
<g mask="url(#mask2_6039_13835)">
<path d="M189.572 70.6191H188.671C180.778 71.1006 174.62 77.6898 174.609 85.6667V85.8944V192.59C174.594 199.861 169.724 206.208 162.751 208.044C161.168 208.457 159.505 208.457 157.923 208.044C150.928 206.182 146.06 199.791 146.079 192.493V189.247C146.089 187.903 145.016 186.803 143.683 186.796H128.384H116.084H97.1221H77.2683H65.4019C64.0699 186.796 62.9883 187.887 62.9883 189.231V192.672C62.9778 204.164 72.2082 213.488 83.601 213.498H83.6315H109.656H158.839C159.37 213.498 160.191 213.498 160.722 213.417C161.661 213.33 162.592 213.174 163.507 212.946C172.854 210.752 179.473 202.353 179.484 192.672V85.7487V85.6345C179.553 80.3886 183.54 76.0438 188.72 75.571C189.02 75.5545 189.32 75.5545 189.621 75.571C195.215 75.5798 199.749 80.1531 199.758 85.7967V97.3709H202.172C203.505 97.3709 204.586 96.2806 204.586 94.9364V85.7967C204.621 77.4499 197.943 70.6558 189.67 70.6191H189.572Z" fill="#E6E6E6"/>
</g>
<mask id="mask3_6039_13835" style="mask-type:luminance" maskUnits="userSpaceOnUse" x="0" y="0" width="281" height="280">
<path d="M0.5 0H280.5V280H0.5V0Z" fill="white"/>
</mask>
<g mask="url(#mask3_6039_13835)">
<mask id="mask4_6039_13835" style="mask-type:luminance" maskUnits="userSpaceOnUse" x="83" y="73" width="98" height="136">
<path d="M180.421 73.9238C174.751 73.9238 101.48 73.9238 101.48 73.9238L88.6139 83.0827L83.8164 110.777V186.883C83.8164 186.883 142.259 186.883 144.003 186.883C145.748 186.883 145.966 188.41 145.966 189.5C145.966 190.59 147.056 208.69 159.922 208.69C172.788 208.69 174.533 196.914 174.533 190.372C174.533 183.83 174.533 86.3537 174.533 84.173C174.533 81.9924 177.15 75.4503 180.421 73.9238Z" fill="white"/>
</mask>
<g mask="url(#mask4_6039_13835)">
<path d="M195.808 167.163C211.149 159.206 217.148 140.345 209.207 125.035C201.267 109.725 182.394 103.764 167.052 111.721C151.711 119.678 145.71 138.539 153.651 153.85C161.592 169.16 180.467 175.12 195.808 167.163Z" fill="#EFEFEF"/>
<path d="M195.808 167.163C211.149 159.206 217.148 140.345 209.207 125.035C201.267 109.725 182.394 103.764 167.052 111.721C151.711 119.678 145.71 138.539 153.651 153.85C161.592 169.16 180.467 175.12 195.808 167.163Z" stroke="#EFEFEF" stroke-width="7.16011" stroke-miterlimit="10"/>
</g>
</g>
<path d="M101.426 165.566H125.025" stroke="#E1E1E1" stroke-width="3" stroke-miterlimit="10" stroke-linecap="round"/>
<path d="M101.426 143.585H125.025" stroke="#E1E1E1" stroke-width="3" stroke-miterlimit="10" stroke-linecap="round"/>
<path d="M101.414 121.602H154.906" stroke="#E1E1E1" stroke-width="3" stroke-miterlimit="10" stroke-linecap="round"/>
<path d="M101.414 98.0508H161.087" stroke="#E1E1E1" stroke-width="3" stroke-miterlimit="10" stroke-linecap="round"/>
<path d="M200.159 157.959C202.162 156.811 204.716 157.502 205.868 159.502L220.43 184.763C221.579 186.756 220.894 189.304 218.901 190.454L218.892 190.459C216.889 191.606 214.335 190.916 213.182 188.916L198.62 163.655C197.471 161.661 198.156 159.113 200.149 157.964L200.159 157.959Z" fill="#E1E1E1"/>
<path d="M203.308 163.219C218.649 155.262 224.648 136.401 216.707 121.091C208.767 105.78 189.894 99.8199 174.552 107.777C159.211 115.734 153.21 134.595 161.151 149.906C169.092 165.215 187.967 171.176 203.308 163.219Z" fill="white"/>
<path d="M203.308 163.219C218.649 155.262 224.648 136.401 216.707 121.091C208.767 105.78 189.894 99.8199 174.552 107.777C159.211 115.734 153.21 134.595 161.151 149.906C169.092 165.215 187.967 171.176 203.308 163.219Z" stroke="#E1E1E1" stroke-width="7.16011" stroke-miterlimit="10"/>
</svg>
