<svg width="133" height="49" viewBox="0 0 133 49" fill="none" xmlns="http://www.w3.org/2000/svg">
<rect x="0.953125" width="132.053" height="48.8271" rx="4" fill="#837E8C"/>
<path d="M16.9531 35.3036V13.5248C16.9533 13.4775 16.9674 13.4313 16.9936 13.3921C17.0199 13.3528 17.0572 13.3222 17.1008 13.304C17.1444 13.2858 17.1924 13.2809 17.2388 13.2899C17.2852 13.2989 17.3279 13.3214 17.3615 13.3546L28.7015 24.4136L17.3615 35.4737C17.3279 35.5069 17.2852 35.5294 17.2388 35.5384C17.1924 35.5474 17.1444 35.5425 17.1008 35.5243C17.0572 35.5062 17.0199 35.4755 16.9936 35.4363C16.9674 35.397 16.9533 35.3508 16.9531 35.3036ZM33.4563 28.9578L19.2374 36.7915L19.2285 36.7965C18.9836 36.9295 18.7508 36.5981 18.9515 36.4053L30.0974 25.7475L33.4563 28.9578ZM18.9526 12.422C18.7508 12.2291 18.9836 11.8977 19.2296 12.0307L19.2385 12.0357L33.4563 19.8694L30.0974 23.0808L18.9526 12.422ZM39.1963 25.799L35.2257 27.9858L31.4923 24.4136L35.2257 20.8431L39.1963 23.0282C40.2764 23.625 40.2764 25.2022 39.1963 25.799Z" fill="#E6E1E1"/>
<path d="M53.2214 15.5133C53.1652 15.3411 53.0911 15.1869 52.999 15.0505C52.9087 14.9124 52.8004 14.7948 52.6743 14.6977C52.5499 14.6005 52.4084 14.5263 52.2499 14.4752C52.0913 14.4241 51.9175 14.3985 51.7283 14.3985C51.418 14.3985 51.1359 14.4786 50.882 14.6388C50.628 14.7991 50.426 15.0352 50.276 15.3471C50.126 15.659 50.051 16.0417 50.051 16.4951C50.051 16.9485 50.1268 17.3312 50.2786 17.6431C50.4303 17.955 50.6357 18.1911 50.8947 18.3513C51.1538 18.5116 51.4453 18.5917 51.7692 18.5917C52.0692 18.5917 52.3334 18.5278 52.5618 18.3999C52.7919 18.2704 52.9709 18.088 53.0987 17.8528C53.2283 17.6158 53.293 17.3371 53.293 17.0167L53.4874 17.0576H51.9124V16.4951H53.9067V17.0576C53.9067 17.4888 53.8146 17.8638 53.6305 18.1826C53.4482 18.5013 53.1959 18.7485 52.8737 18.9241C52.5533 19.0979 52.1851 19.1849 51.7692 19.1849C51.3055 19.1849 50.8982 19.0758 50.547 18.8576C50.1976 18.6394 49.9249 18.3292 49.7288 17.9269C49.5345 17.5246 49.4374 17.0474 49.4374 16.4951C49.4374 16.0809 49.4928 15.7085 49.6036 15.3778C49.7161 15.0454 49.8746 14.7624 50.0791 14.5289C50.2837 14.2954 50.5257 14.1164 50.8053 13.992C51.0848 13.8675 51.3925 13.8053 51.7283 13.8053C52.0044 13.8053 52.2618 13.8471 52.5004 13.9306C52.7408 14.0124 52.9547 14.1292 53.1422 14.2809C53.3314 14.4309 53.4891 14.6107 53.6152 14.8204C53.7413 15.0283 53.8283 15.2593 53.876 15.5133H53.2214ZM56.5575 19.1951C56.179 19.1951 55.8526 19.1116 55.5782 18.9445C55.3055 18.7758 55.095 18.5406 54.9467 18.2388C54.8001 17.9354 54.7268 17.5826 54.7268 17.1803C54.7268 16.7781 54.8001 16.4235 54.9467 16.1167C55.095 15.8082 55.3012 15.5678 55.5654 15.3957C55.8313 15.2218 56.1415 15.1349 56.4961 15.1349C56.7006 15.1349 56.9026 15.169 57.1021 15.2371C57.3015 15.3053 57.483 15.4161 57.6467 15.5695C57.8103 15.7212 57.9407 15.9224 58.0379 16.1729C58.135 16.4235 58.1836 16.732 58.1836 17.0985V17.3542H55.1563V16.8326H57.57C57.57 16.611 57.5256 16.4133 57.437 16.2394C57.3501 16.0656 57.2256 15.9283 57.0637 15.8278C56.9035 15.7272 56.7143 15.6769 56.4961 15.6769C56.2558 15.6769 56.0478 15.7366 55.8722 15.8559C55.6984 15.9735 55.5646 16.1269 55.4708 16.3161C55.3771 16.5053 55.3302 16.7082 55.3302 16.9246V17.2724C55.3302 17.569 55.3813 17.8204 55.4836 18.0266C55.5876 18.2312 55.7316 18.3871 55.9157 18.4945C56.0998 18.6002 56.3137 18.6531 56.5575 18.6531C56.716 18.6531 56.8592 18.6309 56.987 18.5866C57.1165 18.5406 57.2282 18.4724 57.3219 18.382C57.4157 18.29 57.4881 18.1758 57.5393 18.0394L58.1222 18.2031C58.0609 18.4008 57.9577 18.5746 57.8129 18.7246C57.668 18.8729 57.489 18.9888 57.2759 19.0724C57.0629 19.1542 56.8234 19.1951 56.5575 19.1951ZM60.8094 15.186V15.6974H58.7742V15.186H60.8094ZM59.3674 14.2451H59.9708V17.9883C59.9708 18.1587 59.9955 18.2866 60.045 18.3718C60.0961 18.4553 60.1609 18.5116 60.2393 18.5406C60.3194 18.5678 60.4038 18.5815 60.4924 18.5815C60.5589 18.5815 60.6134 18.5781 60.656 18.5712C60.6987 18.5627 60.7327 18.5559 60.7583 18.5508L60.881 19.0928C60.8401 19.1082 60.783 19.1235 60.7097 19.1388C60.6364 19.1559 60.5435 19.1644 60.431 19.1644C60.2606 19.1644 60.0935 19.1278 59.9299 19.0545C59.768 18.9812 59.6333 18.8695 59.5259 18.7195C59.4202 18.5695 59.3674 18.3803 59.3674 18.1519V14.2451ZM63.7421 19.1133V15.186H64.3455V19.1133H63.7421ZM64.0489 14.5315C63.9313 14.5315 63.8299 14.4914 63.7447 14.4113C63.6612 14.3312 63.6194 14.2349 63.6194 14.1224C63.6194 14.0099 63.6612 13.9136 63.7447 13.8335C63.8299 13.7533 63.9313 13.7133 64.0489 13.7133C64.1665 13.7133 64.2671 13.7533 64.3506 13.8335C64.4359 13.9136 64.4785 14.0099 64.4785 14.1224C64.4785 14.2349 64.4359 14.3312 64.3506 14.4113C64.2671 14.4914 64.1665 14.5315 64.0489 14.5315ZM67.1587 15.186V15.6974H65.1234V15.186H67.1587ZM65.7166 14.2451H66.32V17.9883C66.32 18.1587 66.3447 18.2866 66.3942 18.3718C66.4453 18.4553 66.5101 18.5116 66.5885 18.5406C66.6686 18.5678 66.753 18.5815 66.8416 18.5815C66.9081 18.5815 66.9626 18.5781 67.0053 18.5712C67.0479 18.5627 67.082 18.5559 67.1075 18.5508L67.2303 19.0928C67.1893 19.1082 67.1322 19.1235 67.0589 19.1388C66.9857 19.1559 66.8928 19.1644 66.7803 19.1644C66.6098 19.1644 66.4428 19.1278 66.2791 19.0545C66.1172 18.9812 65.9825 18.8695 65.8751 18.7195C65.7695 18.5695 65.7166 18.3803 65.7166 18.1519V14.2451ZM71.6868 19.1951C71.3322 19.1951 71.0212 19.1107 70.7536 18.942C70.4876 18.7732 70.2797 18.5371 70.1297 18.2337C69.9814 17.9303 69.9072 17.5758 69.9072 17.1701C69.9072 16.761 69.9814 16.4039 70.1297 16.0988C70.2797 15.7937 70.4876 15.5567 70.7536 15.388C71.0212 15.2192 71.3322 15.1349 71.6868 15.1349C72.0413 15.1349 72.3516 15.2192 72.6175 15.388C72.8851 15.5567 73.093 15.7937 73.2413 16.0988C73.3913 16.4039 73.4663 16.761 73.4663 17.1701C73.4663 17.5758 73.3913 17.9303 73.2413 18.2337C73.093 18.5371 72.8851 18.7732 72.6175 18.942C72.3516 19.1107 72.0413 19.1951 71.6868 19.1951ZM71.6868 18.6531C71.9561 18.6531 72.1777 18.584 72.3516 18.446C72.5254 18.3079 72.6541 18.1263 72.7376 17.9013C72.8212 17.6763 72.8629 17.4326 72.8629 17.1701C72.8629 16.9076 72.8212 16.663 72.7376 16.4363C72.6541 16.2096 72.5254 16.0263 72.3516 15.8866C72.1777 15.7468 71.9561 15.6769 71.6868 15.6769C71.4175 15.6769 71.1959 15.7468 71.022 15.8866C70.8482 16.0263 70.7195 16.2096 70.6359 16.4363C70.5524 16.663 70.5107 16.9076 70.5107 17.1701C70.5107 17.4326 70.5524 17.6763 70.6359 17.9013C70.7195 18.1263 70.8482 18.3079 71.022 18.446C71.1959 18.584 71.4175 18.6531 71.6868 18.6531ZM74.9908 16.7508V19.1133H74.3874V15.186H74.9704V15.7996H75.0215C75.1136 15.6002 75.2533 15.44 75.4408 15.319C75.6283 15.1962 75.8704 15.1349 76.167 15.1349C76.4329 15.1349 76.6656 15.1894 76.865 15.2985C77.0644 15.4059 77.2195 15.5695 77.3303 15.7894C77.4411 16.0076 77.4965 16.2837 77.4965 16.6178V19.1133H76.8931V16.6587C76.8931 16.3502 76.813 16.1099 76.6528 15.9377C76.4925 15.7638 76.2727 15.6769 75.9931 15.6769C75.8005 15.6769 75.6283 15.7187 75.4766 15.8022C75.3266 15.8857 75.2082 16.0076 75.1212 16.1678C75.0343 16.3281 74.9908 16.5224 74.9908 16.7508Z" fill="#E6E1E1"/>
<path d="M56.0305 27.7129C55.9368 27.426 55.8132 27.1689 55.6598 26.9416C55.5092 26.7115 55.3288 26.5154 55.1186 26.3535C54.9112 26.1916 54.6754 26.068 54.4112 25.9828C54.147 25.8975 53.8572 25.8549 53.5419 25.8549C53.0249 25.8549 52.5547 25.9885 52.1314 26.2555C51.7081 26.5225 51.3714 26.916 51.1214 27.4359C50.8714 27.9558 50.7464 28.5936 50.7464 29.3493C50.7464 30.1049 50.8729 30.7427 51.1257 31.2626C51.3786 31.7825 51.7209 32.176 52.1527 32.443C52.5845 32.71 53.0703 32.8436 53.6101 32.8436C54.1101 32.8436 54.5504 32.737 54.9311 32.524C55.3146 32.3081 55.6129 32.0041 55.826 31.612C56.0419 31.2172 56.1499 30.7527 56.1499 30.2186L56.4737 30.2868H53.8487V29.3493H57.1726V30.2868C57.1726 31.0055 57.0192 31.6305 56.7124 32.1618C56.4084 32.693 55.9879 33.1049 55.451 33.3975C54.9169 33.6873 54.3033 33.8322 53.6101 33.8322C52.8374 33.8322 52.1584 33.6504 51.5732 33.2868C50.9908 32.9231 50.5362 32.4061 50.2095 31.7356C49.8857 31.0652 49.7237 30.2697 49.7237 29.3493C49.7237 28.6589 49.8161 28.0382 50.0007 27.487C50.1882 26.9331 50.4524 26.4615 50.7933 26.0723C51.1342 25.6831 51.5376 25.3848 52.0036 25.1774C52.4695 24.97 52.9822 24.8663 53.5419 24.8663C54.0021 24.8663 54.4311 24.9359 54.8288 25.0751C55.2294 25.2115 55.5859 25.4061 55.8984 25.6589C56.2138 25.9089 56.4766 26.2086 56.6868 26.5581C56.897 26.9047 57.0419 27.2896 57.1214 27.7129H56.0305ZM61.5053 33.8493C60.9144 33.8493 60.396 33.7086 59.9499 33.4274C59.5067 33.1461 59.1602 32.7527 58.9102 32.247C58.663 31.7413 58.5394 31.1504 58.5394 30.4743C58.5394 29.7924 58.663 29.1973 58.9102 28.6887C59.1602 28.1802 59.5067 27.7853 59.9499 27.5041C60.396 27.2228 60.9144 27.0822 61.5053 27.0822C62.0962 27.0822 62.6133 27.2228 63.0565 27.5041C63.5025 27.7853 63.8491 28.1802 64.0962 28.6887C64.3462 29.1973 64.4712 29.7924 64.4712 30.4743C64.4712 31.1504 64.3462 31.7413 64.0962 32.247C63.8491 32.7527 63.5025 33.1461 63.0565 33.4274C62.6133 33.7086 62.0962 33.8493 61.5053 33.8493ZM61.5053 32.9458C61.9542 32.9458 62.3235 32.8308 62.6133 32.6007C62.9031 32.3706 63.1175 32.068 63.2567 31.693C63.396 31.318 63.4656 30.9118 63.4656 30.4743C63.4656 30.0368 63.396 29.6291 63.2567 29.2512C63.1175 28.8734 62.9031 28.568 62.6133 28.335C62.3235 28.1021 61.9542 27.9856 61.5053 27.9856C61.0565 27.9856 60.6871 28.1021 60.3974 28.335C60.1076 28.568 59.8931 28.8734 59.7539 29.2512C59.6147 29.6291 59.5451 30.0368 59.5451 30.4743C59.5451 30.9118 59.6147 31.318 59.7539 31.693C59.8931 32.068 60.1076 32.3706 60.3974 32.6007C60.6871 32.8308 61.0565 32.9458 61.5053 32.9458ZM68.6655 33.8493C68.0746 33.8493 67.5561 33.7086 67.1101 33.4274C66.6669 33.1461 66.3203 32.7527 66.0703 32.247C65.8232 31.7413 65.6996 31.1504 65.6996 30.4743C65.6996 29.7924 65.8232 29.1973 66.0703 28.6887C66.3203 28.1802 66.6669 27.7853 67.1101 27.5041C67.5561 27.2228 68.0746 27.0822 68.6655 27.0822C69.2564 27.0822 69.7734 27.2228 70.2166 27.5041C70.6626 27.7853 71.0092 28.1802 71.2564 28.6887C71.5064 29.1973 71.6314 29.7924 71.6314 30.4743C71.6314 31.1504 71.5064 31.7413 71.2564 32.247C71.0092 32.7527 70.6626 33.1461 70.2166 33.4274C69.7734 33.7086 69.2564 33.8493 68.6655 33.8493ZM68.6655 32.9458C69.1143 32.9458 69.4837 32.8308 69.7734 32.6007C70.0632 32.3706 70.2777 32.068 70.4169 31.693C70.5561 31.318 70.6257 30.9118 70.6257 30.4743C70.6257 30.0368 70.5561 29.6291 70.4169 29.2512C70.2777 28.8734 70.0632 28.568 69.7734 28.335C69.4837 28.1021 69.1143 27.9856 68.6655 27.9856C68.2166 27.9856 67.8473 28.1021 67.5575 28.335C67.2678 28.568 67.0533 28.8734 66.9141 29.2512C66.7749 29.6291 66.7053 30.0368 66.7053 30.4743C66.7053 30.9118 66.7749 31.318 66.9141 31.693C67.0533 32.068 67.2678 32.3706 67.5575 32.6007C67.8473 32.8308 68.2166 32.9458 68.6655 32.9458ZM75.8086 36.3038C75.3228 36.3038 74.9052 36.2413 74.5558 36.1163C74.2063 35.9941 73.9151 35.8322 73.6822 35.6305C73.4521 35.4316 73.2688 35.2186 73.1325 34.9913L73.9336 34.4288C74.0245 34.5481 74.1396 34.6845 74.2788 34.8379C74.418 34.9941 74.6083 35.1291 74.8498 35.2427C75.0941 35.3592 75.4137 35.4174 75.8086 35.4174C76.337 35.4174 76.7731 35.2896 77.1168 35.0339C77.4606 34.7782 77.6325 34.3777 77.6325 33.8322V32.5027H77.5472C77.4734 32.622 77.3683 32.7697 77.2319 32.9458C77.0984 33.1191 76.9052 33.274 76.6523 33.4103C76.4023 33.5439 76.0643 33.6106 75.6381 33.6106C75.1097 33.6106 74.6353 33.4856 74.2148 33.2356C73.7972 32.9856 73.4663 32.622 73.2219 32.1447C72.9805 31.6674 72.8597 31.0879 72.8597 30.4061C72.8597 29.7356 72.9776 29.1518 73.2134 28.6547C73.4492 28.1547 73.7773 27.7683 74.1978 27.4956C74.6183 27.22 75.104 27.0822 75.6552 27.0822C76.0813 27.0822 76.4194 27.1532 76.6694 27.2953C76.9222 27.4345 77.1154 27.5936 77.2489 27.7725C77.3853 27.9487 77.4904 28.0936 77.5643 28.2072H77.6665V27.1674H78.6381V33.9004C78.6381 34.4629 78.5103 34.9203 78.2546 35.2725C78.0018 35.6277 77.6609 35.8876 77.2319 36.0524C76.8058 36.22 76.3313 36.3038 75.8086 36.3038ZM75.7745 32.7072C76.1779 32.7072 76.5188 32.6149 76.7972 32.4302C77.0756 32.2456 77.2873 31.9799 77.4322 31.6333C77.5771 31.2868 77.6495 30.872 77.6495 30.389C77.6495 29.9174 77.5785 29.5012 77.4364 29.1404C77.2944 28.7797 77.0842 28.497 76.8058 28.2924C76.5273 28.0879 76.1836 27.9856 75.7745 27.9856C75.3484 27.9856 74.9933 28.0936 74.7092 28.3095C74.4279 28.5254 74.2163 28.8152 74.0742 29.1788C73.935 29.5424 73.8654 29.9458 73.8654 30.389C73.8654 30.8436 73.9364 31.2456 74.0785 31.595C74.2234 31.9416 74.4364 32.2143 74.7177 32.4132C75.0018 32.6092 75.354 32.7072 75.7745 32.7072ZM81.4847 24.9856V33.7129H80.479V24.9856H81.4847ZM86.071 33.8493C85.4403 33.8493 84.8963 33.71 84.4389 33.4316C83.9844 33.1504 83.6335 32.7583 83.3864 32.2555C83.142 31.7498 83.0199 31.1618 83.0199 30.4913C83.0199 29.8208 83.142 29.2299 83.3864 28.7186C83.6335 28.2044 83.9773 27.8038 84.4176 27.5169C84.8608 27.2271 85.3778 27.0822 85.9688 27.0822C86.3097 27.0822 86.6463 27.139 86.9787 27.2527C87.3111 27.3663 87.6136 27.551 87.8864 27.8066C88.1591 28.0595 88.3764 28.3947 88.5384 28.8123C88.7003 29.2299 88.7812 29.7441 88.7812 30.3549V30.7811H83.7358V29.9118H87.7585C87.7585 29.5424 87.6847 29.2129 87.5369 28.9231C87.392 28.6333 87.1847 28.4047 86.9148 28.237C86.6477 28.0694 86.3324 27.9856 85.9688 27.9856C85.5682 27.9856 85.2216 28.085 84.929 28.2839C84.6392 28.4799 84.4162 28.7356 84.2599 29.051C84.1037 29.3663 84.0256 29.7044 84.0256 30.0652V30.6447C84.0256 31.139 84.1108 31.5581 84.2812 31.9018C84.4545 32.2427 84.6946 32.5027 85.0014 32.6816C85.3082 32.8578 85.6648 32.9458 86.071 32.9458C86.3352 32.9458 86.5739 32.9089 86.7869 32.835C87.0028 32.7583 87.1889 32.6447 87.3452 32.4941C87.5014 32.3407 87.6222 32.1504 87.7074 31.9231L88.679 32.1958C88.5767 32.5254 88.4048 32.8152 88.1634 33.0652C87.9219 33.3123 87.6236 33.5055 87.2685 33.6447C86.9134 33.7811 86.5142 33.8493 86.071 33.8493ZM93.8224 33.7129V24.9856H96.7713C97.456 24.9856 98.0156 25.1092 98.4503 25.3564C98.8878 25.6007 99.2116 25.9316 99.4219 26.3493C99.6321 26.7669 99.7372 27.2328 99.7372 27.747C99.7372 28.2612 99.6321 28.7285 99.4219 29.149C99.2145 29.5694 98.8935 29.9047 98.4588 30.1547C98.0241 30.4018 97.4673 30.5254 96.7884 30.5254H94.6747V29.5879H96.7543C97.223 29.5879 97.5994 29.5069 97.8835 29.345C98.1676 29.1831 98.3736 28.9643 98.5014 28.6887C98.6321 28.4103 98.6974 28.0964 98.6974 27.747C98.6974 27.3975 98.6321 27.085 98.5014 26.8095C98.3736 26.5339 98.1662 26.318 97.8793 26.1618C97.5923 26.0027 97.2116 25.9231 96.7372 25.9231H94.8793V33.7129H93.8224ZM102.309 24.9856V33.7129H101.303V24.9856H102.309ZM106.077 33.8663C105.662 33.8663 105.286 33.7882 104.948 33.6319C104.61 33.4728 104.341 33.2441 104.142 32.9458C103.944 32.6447 103.844 32.2811 103.844 31.8549C103.844 31.4799 103.918 31.176 104.066 30.943C104.213 30.7072 104.411 30.5225 104.658 30.389C104.905 30.2555 105.178 30.1561 105.476 30.0907C105.777 30.0225 106.08 29.9686 106.384 29.9288C106.782 29.8777 107.104 29.8393 107.351 29.8137C107.601 29.7853 107.783 29.7385 107.897 29.6731C108.013 29.6078 108.071 29.4941 108.071 29.3322V29.2981C108.071 28.8777 107.956 28.551 107.726 28.318C107.499 28.085 107.154 27.9686 106.691 27.9686C106.211 27.9686 105.834 28.0737 105.561 28.2839C105.289 28.4941 105.097 28.7186 104.986 28.9572L104.032 28.6163C104.202 28.2186 104.429 27.9089 104.713 27.6873C105 27.4629 105.313 27.3066 105.651 27.2186C105.992 27.1277 106.327 27.0822 106.657 27.0822C106.867 27.0822 107.108 27.1078 107.381 27.1589C107.657 27.2072 107.922 27.3081 108.178 27.4615C108.436 27.6149 108.651 27.8464 108.821 28.1561C108.992 28.4657 109.077 28.8805 109.077 29.4004V33.7129H108.071V32.8265H108.02C107.952 32.9686 107.838 33.1206 107.679 33.2825C107.52 33.4444 107.309 33.5822 107.044 33.6958C106.78 33.8095 106.458 33.8663 106.077 33.8663ZM106.23 32.9629C106.628 32.9629 106.963 32.8848 107.236 32.7285C107.512 32.5723 107.719 32.3706 107.858 32.1234C108 31.8762 108.071 31.6163 108.071 31.3436V30.4231C108.029 30.4743 107.935 30.5211 107.79 30.5637C107.648 30.6035 107.483 30.639 107.296 30.6703C107.111 30.6987 106.931 30.7243 106.755 30.747C106.581 30.7669 106.441 30.7839 106.333 30.7981C106.071 30.8322 105.827 30.8876 105.6 30.9643C105.375 31.0382 105.194 31.1504 105.054 31.301C104.918 31.4487 104.85 31.6504 104.85 31.9061C104.85 32.2555 104.979 32.5197 105.238 32.6987C105.499 32.8748 105.83 32.9629 106.23 32.9629ZM111.326 36.1674C111.156 36.1674 111.004 36.1532 110.87 36.1248C110.737 36.0993 110.644 36.0737 110.593 36.0481L110.849 35.1618C111.093 35.2243 111.309 35.247 111.496 35.2299C111.684 35.2129 111.85 35.1291 111.995 34.9785C112.143 34.8308 112.278 34.5907 112.4 34.2583L112.587 33.747L110.167 27.1674H111.258L113.065 32.3833H113.133L114.94 27.1674H116.031L113.252 34.6674C113.127 35.0055 112.972 35.2853 112.788 35.5069C112.603 35.7314 112.388 35.8975 112.144 36.0055C111.903 36.1135 111.63 36.1674 111.326 36.1674Z" fill="#E6E1E1"/>
</svg>
