<svg width="421" height="77" viewBox="0 0 421 77" fill="none" xmlns="http://www.w3.org/2000/svg">
<g clip-path="url(#clip0_3087_46211)">
<g clip-path="url(#clip1_3087_46211)">
<path fill-rule="evenodd" clip-rule="evenodd" d="M122.837 39.9668C122.837 28.3952 114.559 21.0961 104.055 21.0961C93.5516 21.0961 85.2734 28.3952 85.2734 39.9668C85.2734 51.5385 93.2846 58.8375 103.788 58.8375C114.381 58.8375 122.837 51.4494 122.837 39.9668ZM94.6198 39.9668C94.6198 32.6678 99.0704 29.1963 103.877 29.1963C108.684 29.1963 113.312 32.6678 113.312 39.9668C113.312 47.2658 108.595 50.7373 103.788 50.7373C98.9814 50.7373 94.6198 47.1768 94.6198 39.9668ZM155.148 58.2144H164.406V36.7624C164.406 26.7039 158.353 21.1851 149.808 21.1851C141.262 21.1851 141.173 23.1434 138.77 26.2589V21.7192H129.513V58.2144H138.77V38.0085C138.77 32.1337 141.974 29.0182 147.048 29.0182C152.122 29.0182 155.148 32.2227 155.148 38.0085V58.2144ZM173.129 58.2144H182.386V21.7192H173.129V58.2144ZM177.847 17.3576C181.051 17.3576 183.543 14.9542 183.543 11.9278C183.543 8.90139 181.14 6.49805 177.847 6.49805C174.553 6.49805 172.15 8.90139 172.15 11.9278C172.15 14.9542 174.553 17.3576 177.847 17.3576ZM192.979 46.9098C192.979 55.277 197.696 58.2144 204.639 58.2144H210.425V50.4703H206.153C203.215 50.4703 202.236 49.4021 202.236 46.9988V29.3743H210.425V21.8082H202.236V12.8179H192.979V21.8082H188.617V29.3743H192.979V46.9988V46.9098ZM214.698 39.8778C214.698 51.2714 222.086 58.8375 231.343 58.8375C240.601 58.8375 241.313 56.0781 243.449 52.8736V58.2144H252.706V21.7192H243.449V26.8819C241.313 23.8555 237.218 21.0961 231.432 21.0961C222.175 21.0961 214.787 28.3952 214.787 39.7888L214.698 39.8778ZM243.449 39.9668C243.449 46.9098 238.82 50.7373 233.747 50.7373C228.673 50.7373 224.133 46.8208 224.133 39.8778C224.133 32.9348 228.851 29.2853 233.747 29.2853C238.82 29.2853 243.449 33.1128 243.449 40.0558V39.9668ZM259.382 39.8778C259.382 51.2714 266.77 58.8375 276.028 58.8375C285.285 58.8375 285.908 55.9891 288.044 52.8736V58.5705C288.044 65.3354 284.128 68.2728 279.054 68.2728C273.98 68.2728 271.043 66.1365 270.064 62.8431H260.895C261.786 71.2103 268.996 76.373 279.321 76.373C289.646 76.373 297.391 68.5399 297.391 58.6595V21.7192H288.133V26.8819C285.997 23.6775 281.813 21.0961 276.117 21.0961C266.859 21.0961 259.471 28.3952 259.471 39.7888L259.382 39.8778ZM288.133 39.9668C288.133 46.9098 283.505 50.7373 278.431 50.7373C273.357 50.7373 268.818 46.8208 268.818 39.8778C268.818 32.9348 273.535 29.2853 278.431 29.2853C283.505 29.2853 288.133 33.1128 288.133 40.0558V39.9668Z" fill="white"/>
<path d="M40.5008 58.3919C38.4535 58.748 35.427 57.8578 34.0028 56.7007C34.2699 54.9204 34.3589 53.5852 36.0501 53.2292C39.2546 53.9413 39.3436 55.0984 40.7678 57.9468C40.7678 58.1249 40.7678 58.2139 40.5898 58.3029L40.5008 58.3919ZM42.014 58.3919C41.0348 55.6325 40.3227 54.1193 38.4535 52.8731C37.8304 52.25 35.8721 51.894 34.7149 52.6061C33.8248 52.9621 33.2907 53.9413 33.0237 55.7215H32.7567C32.4006 55.3655 32.0446 55.0984 31.6885 54.6534C31.6885 52.4281 32.5786 50.7368 33.5578 50.0247C36.1391 48.4225 40.0557 50.0247 41.1239 51.2709C42.8151 52.7841 43.7052 54.2973 44.7734 57.0567C44.4173 57.6798 43.4382 57.7688 42.103 58.3919H42.014ZM47.7998 54.2973C47.2657 55.0094 46.7317 55.6325 46.0195 56.3446C45.8415 56.3446 45.7525 56.3446 45.5745 56.0776C44.1503 52.7841 42.6371 50.4698 39.7887 48.8676C37.9194 48.1555 35.6051 47.5324 33.4688 48.5115C32.0446 49.4016 31.2434 50.2027 30.6204 52.339H30.2643C29.9973 51.2709 29.5522 50.2027 29.5522 49.0456C30.4423 47.2653 31.0654 46.1972 33.6468 45.3961C37.0293 44.4169 41.4799 46.1972 42.9041 47.6214C44.9514 49.2236 46.4646 51.2709 47.7108 53.7633C47.7108 53.9413 47.6218 54.0303 47.7108 54.2973H47.7998ZM48.6009 52.7841C46.9097 49.7577 44.8624 47.0873 41.925 45.4851C38.6315 43.0817 31.4215 43.4378 29.9083 46.1972C29.9973 46.1972 29.7302 46.7313 29.6412 46.1972C29.6412 45.129 29.6412 44.0609 29.6412 42.8147C30.3533 41.8356 32.8457 40.9454 35.071 40.7674C37.1183 40.7674 39.1656 41.0344 41.4799 41.9246C43.8832 42.9037 45.4855 44.1499 47.1767 45.8411C47.9778 46.5532 48.6009 47.4434 49.313 48.3335C50.0251 49.4016 49.313 51.3599 48.6009 52.7841ZM49.6691 46.5532H49.313C47.3547 44.2389 45.1294 42.1916 42.014 40.8564C39.8777 39.9663 37.8304 39.6102 35.5161 39.6102C33.7358 39.4322 30.8874 40.1443 29.6412 41.2125C29.4632 40.3223 29.6412 39.1652 29.4632 38.008C31.4215 36.9399 34.0919 36.6728 36.4062 36.7618C39.6996 36.7618 44.0613 38.3641 45.7525 39.6102C46.8207 40.2333 47.7998 41.0344 48.7789 41.9246C50.0251 42.4586 49.135 45.04 49.5801 46.5532H49.6691ZM49.5801 38.097C49.5801 38.9871 49.491 39.7883 49.5801 40.8564C47.0877 38.8981 45.6635 37.741 41.3909 36.2278C37.5633 35.2486 33.6468 34.8926 29.7302 36.4058C29.5522 35.3376 29.7302 34.2695 29.7302 33.2903C31.1544 32.7563 32.5786 32.5782 34.0028 32.4892C37.5633 32.4002 41.2129 32.9343 44.8624 34.4475C46.1976 35.1596 47.3547 35.6047 48.5119 36.4058C48.868 36.9399 49.8471 36.7618 49.5801 38.097ZM49.5801 35.6937C48.5119 34.9816 47.4437 34.2695 46.1086 33.6464C43.8832 32.5782 40.6788 31.5991 38.0084 31.3321C35.249 31.065 32.4896 31.065 29.6412 31.7771V29.0177C29.5522 28.7507 29.8192 28.9287 30.0863 28.7507C31.5105 28.4837 33.0237 28.3056 34.4479 28.1276C37.2073 28.2166 39.9667 28.3946 42.8151 29.1958C46.1976 30.1749 47.7998 31.154 49.5801 32.2222C49.5801 33.2903 49.5801 34.3585 49.5801 35.5157V35.6937ZM49.5801 30.887C48.1559 30.0859 47.6218 29.8188 45.4855 28.9287C40.2337 27.0595 34.893 26.5254 29.6412 27.4155C29.6412 26.5254 29.6412 25.7243 29.6412 24.6561C30.5313 24.2111 31.8665 24.3001 32.9347 24.122C35.7831 24.122 38.6315 24.122 41.7469 24.8341C44.3283 25.2792 48.0668 26.7034 49.6691 27.5935C49.6691 28.6617 49.6691 29.7298 49.6691 30.887H49.5801ZM49.5801 25.8133C49.5801 25.9913 49.6691 26.0803 49.402 26.1693C46.8207 24.8341 42.9041 23.588 39.6106 23.2319C36.3172 22.6978 32.9347 22.6978 29.4632 23.4099C29.0181 22.4308 28.4841 21.5407 27.4159 20.9176C27.95 20.5615 29.2852 20.4725 30.2643 20.2945C31.2434 20.0275 32.1336 20.1165 33.1127 19.9384C36.3172 19.9384 39.6106 20.1165 42.9041 20.9176C44.5063 21.1846 46.1086 21.7187 47.7998 22.3418C48.5119 22.7868 49.491 22.9649 49.8471 23.4099C49.6691 24.211 49.5801 24.9232 49.5801 25.9023V25.8133ZM50.3812 22.1638C42.014 18.5142 33.4688 17.5351 25.1016 20.1165C21.4521 20.1165 21.274 22.2528 19.5828 23.4989C17.5355 25.2792 16.0223 27.3265 14.8651 29.9969C13.886 32.2222 13.3519 34.2695 12.9068 36.3168C12.0167 42.1026 12.1947 47.7104 13.0849 53.3182C13.1739 54.8314 13.797 56.4336 13.797 57.7688C13.5299 57.6798 13.4409 58.1249 13.2629 57.9468C12.9958 58.1249 12.7288 58.1249 12.8178 57.9468C12.6398 57.7688 12.8178 57.6798 12.5508 57.5018C10.6815 47.4434 9.52435 37.4739 13.4409 27.5935C14.5981 25.1012 15.9333 23.3209 17.5355 21.6297C18.7817 20.2945 20.2949 19.3154 21.8971 18.4252C23.4103 17.5351 26.6148 16.4669 28.7511 16.1999C33.8248 15.4878 38.8095 15.6658 43.7052 16.823C46.9097 17.5351 51.0933 19.1373 52.6955 20.0275L52.8735 20.2945C51.4493 20.8286 51.0933 21.3626 50.2922 22.0747L50.3812 22.1638ZM79.0433 49.9357C79.1323 50.2027 78.8652 50.0247 78.7762 49.9357C76.3729 43.8828 74.8596 41.4795 72.5453 37.3849C68.6288 31.243 64.0001 25.9913 58.0363 21.8077C57.5022 20.9176 55.5439 20.2945 54.3867 19.4934C52.7845 18.6033 48.957 16.734 45.3965 15.8439C39.2546 14.3306 33.1127 13.8856 26.7928 15.3098C24.6565 15.8439 21.8081 16.912 20.74 17.7131C18.2476 19.2263 16.1113 21.1846 14.5091 23.677C12.1947 26.4364 9.79139 34.3585 9.88041 40.0553C9.61337 46.1082 10.5035 52.161 11.7497 58.3919C11.3936 58.3029 11.1266 58.6589 10.5925 58.4809C8.36719 47.6214 7.032 36.6728 10.8595 25.5462C12.4618 21.6297 14.6871 18.5142 17.8915 16.1109C19.6718 14.9537 20.74 14.1526 24.0334 12.9955C26.7038 12.1053 29.3742 11.7493 32.1336 11.5713C38.8985 11.3932 45.5745 12.2834 52.5175 15.3098C59.5495 18.4252 65.0683 22.9649 69.7859 28.5727C72.1003 31.3321 74.2366 34.2695 76.1058 37.563C77.085 39.1652 77.9751 40.7674 78.8652 42.4586C79.3103 44.5059 78.8652 47.4434 79.0433 49.9357ZM78.8652 40.2333C73.4354 30.1749 66.4925 21.7187 56.6121 16.1109C53.9417 14.5087 47.5328 11.8383 42.8151 11.2152C35.8721 10.147 29.0181 9.791 22.2532 12.3724C18.8707 13.7076 16.9124 15.2208 14.7761 17.179C12.4618 19.5824 10.9486 21.9857 9.43534 25.5462C7.56608 30.887 7.032 35.8717 7.032 40.9454C7.21003 46.9093 7.92213 52.6951 9.25732 58.4809C7.38805 59.015 8.01114 56.6117 7.38805 55.5435C7.032 54.0303 6.94299 52.6061 6.67595 51.2709C6.23089 48.3335 5.87484 45.5741 5.78582 42.8147C5.51878 37.0289 5.78582 31.4211 7.29904 25.8133C8.72324 21.3626 9.79139 19.5824 11.3046 17.2681C13.4409 14.3306 16.1113 12.0163 19.4938 10.4141C21.6301 9.34593 25.0126 8.27778 27.5939 8.01075C35.338 6.94259 42.9931 7.74371 50.5592 10.3251C55.3659 12.1943 57.3242 13.2625 60.1726 15.1318C67.2936 19.6714 72.8124 25.7243 77.441 32.6673C77.8861 33.7354 78.9542 34.0915 78.7762 35.6937C78.7762 37.2959 78.7762 38.8091 78.7762 40.3223H78.5982L78.8652 40.2333ZM78.8652 32.2222C73.5245 24.122 66.9375 17.2681 58.3923 12.3724C56.167 11.1262 51.2713 8.81186 46.8207 7.74371C40.7678 6.3195 34.893 5.78543 28.9291 6.40852C25.7247 6.76457 21.7191 7.83272 19.2267 9.0789C16.6454 10.3251 14.4201 11.9273 12.6398 13.9746C10.4145 16.3779 8.90127 18.7813 7.47706 22.2528C3.29347 34.3585 4.62866 46.1972 7.032 57.9468C5.25175 57.9468 5.69681 56.0776 5.25175 54.9204C4.98471 53.5852 4.80668 52.3391 4.53965 51.0929C4.09458 48.4225 3.82754 45.8411 3.56051 43.2598C3.11544 38.008 3.20446 32.9343 4.00557 27.7716C4.53965 24.3891 5.69681 20.6505 7.032 17.7131C7.65509 16.4669 8.36719 15.2208 9.1683 14.0636C11.3936 10.9482 14.064 8.45581 17.4465 6.67556C18.9597 5.78543 22.6982 4.36123 25.3686 3.91616C28.9291 3.20406 32.3116 3.11505 35.6051 3.20406C37.8304 3.11505 38.2754 4.27221 39.5216 4.8953C40.4118 4.53925 40.7678 3.73814 42.014 3.73814C43.3492 3.91616 44.5063 4.1832 45.7525 4.45024C48.3339 4.98431 50.8262 5.78543 53.2296 6.67556C58.3923 8.72285 60.5286 10.147 63.9111 12.2834C69.7859 16.3779 74.7706 21.4517 78.9542 27.1485C79.0432 28.8397 78.9542 30.4419 79.0433 32.0442H78.8652V32.2222ZM79.0433 25.1902H78.7762C74.8596 20.2055 70.498 15.7548 65.2463 11.9273C62.6649 10.058 59.9055 8.45581 56.8791 7.03161C52.7845 5.16234 48.0668 3.64912 43.6162 2.93702C43.5272 2.93702 43.2602 3.02604 43.3492 2.66999C44.8624 2.22492 47.7108 0.177631 50.0251 1.42381C54.1197 2.58097 58.7484 4.62826 60.7957 5.87444C64.8012 8.01075 68.3617 10.5921 71.7442 13.5295C73.3464 14.9537 74.9487 16.4669 76.4619 18.0692C77.085 18.9593 77.8861 19.5824 78.5982 20.6505C78.8652 22.1638 78.9542 23.766 78.9542 25.2792L79.0433 25.1902ZM77.7971 17.6241C72.9014 12.2834 67.2046 7.65469 60.3506 4.1832C58.5703 3.20406 54.8318 1.60183 51.4493 0.533682V0.355656C54.8318 -0.000394389 58.2143 0.266644 61.7748 1.24578C66.9375 3.02604 68.8958 4.71728 71.7442 7.47667C73.0794 8.72285 74.1476 10.058 75.2157 11.6603C76.1948 13.3515 76.9959 14.5087 78.0641 17.6241H77.7971ZM32.4896 1.86887C31.5995 2.0469 30.9764 1.95788 30.2643 1.95788C28.7511 2.22492 27.4159 2.22492 25.9917 2.49196C23.2323 2.93702 20.0278 4.00518 17.7135 5.07333C13.975 6.94259 10.8595 9.52396 8.4562 12.8174C6.76496 15.3098 5.78582 16.912 4.1836 21.1846C2.58137 26.2583 1.95828 31.3321 1.95828 36.3168C1.78025 43.1707 2.75939 49.8467 4.1836 56.6117C2.1363 56.0776 2.40334 52.072 1.69124 49.8467C1.24618 46.9983 0.979139 44.3279 0.801114 41.7465C0.267038 36.3168 0.534076 30.976 1.33519 25.6353C1.86927 22.1638 3.11544 18.0692 4.45063 15.3098C5.07372 13.9746 5.69681 12.7284 6.58694 11.5713C8.72324 8.18877 11.4826 5.6074 14.8651 3.56011C16.3783 2.58097 19.5828 1.15677 22.7872 0.355656C26.3477 -0.000394389 29.9083 0.355656 33.3797 1.69085H34.0028C34.2699 2.40295 32.8457 1.69085 32.4896 1.95788V1.86887ZM13.2629 3.02604C8.72324 5.87444 7.21003 8.27778 4.80668 12.0163C3.20446 14.4197 0.623089 21.2736 0.267038 26.2583V26.4364L0.0890127 25.4572V25.2792C-0.0890127 22.5198 0.445063 19.8494 1.24618 17.09C2.40334 13.7966 3.20446 12.6394 4.36162 10.8591C6.94299 7.47667 8.99028 5.34036 13.3519 2.58097V3.02604H13.2629ZM0.267038 45.7521C0.445063 48.1555 0.801114 50.5588 1.33519 52.9621H1.06815C0.0890127 51.0039 0 48.6895 0.178025 46.7313L0 45.307C0.534076 45.218 0.178025 45.4851 0.267038 45.7521ZM61.4187 54.7424C61.4187 54.7424 61.4187 54.7424 61.2407 54.6534C60.4396 53.4962 59.5495 51.983 59.1934 49.4906C59.1934 49.4906 59.4605 49.4906 59.4605 49.6687C59.9055 50.9148 60.7956 52.5171 61.5078 54.5644C61.5078 54.6534 61.3297 54.8314 61.3297 54.8314L61.4187 54.7424ZM66.8485 58.1249C65.0683 57.6798 64.3562 57.1457 63.466 56.6117C62.7539 54.6534 62.0418 52.25 61.2407 50.8258C60.6176 49.4906 59.9945 48.0664 59.2824 46.8203C59.2824 44.951 59.1934 43.1707 59.2824 41.3905C60.8847 43.6158 62.1308 45.8411 63.377 48.2445C64.3562 50.2027 66.1364 54.3863 67.0265 57.8578C67.2936 58.2139 67.0265 58.1249 66.8485 58.1249ZM68.3617 58.4809C67.4716 54.7424 65.2463 49.4016 64.0001 47.2653C62.6649 44.4169 61.0627 41.9246 59.1044 39.5212C59.1044 38.097 59.1044 36.6728 59.2824 35.2486C60.7066 36.4948 61.6858 38.008 62.8429 39.6102C64.4452 41.9246 65.8694 44.4169 67.2936 47.0873C68.4507 49.4906 70.32 53.8523 71.4772 57.8578C70.8541 58.4809 69.4299 58.3029 68.2727 58.3919L68.3617 58.4809ZM72.8124 57.6798C71.7442 55.0984 70.7651 52.072 69.5189 49.3126C68.5397 47.0873 67.7386 45.307 66.5815 43.4378C64.4452 39.6992 62.0418 36.3168 59.1934 33.3794C59.1934 32.0442 59.1934 30.798 59.1934 29.5518H59.4605C64.6232 34.2695 68.6288 40.1443 71.7442 46.9093C72.9014 49.3126 74.4146 53.2292 75.3047 56.1666C74.5036 56.8787 73.7915 57.2347 72.8124 57.6798ZM76.5509 55.0094C76.5509 55.0094 76.1948 55.0094 76.1058 55.0984C75.1267 51.894 73.4354 47.8884 72.3673 45.6631C68.9848 38.7201 64.7122 32.5782 59.1044 27.7716C59.1044 26.5254 59.1044 25.2792 59.2824 24.122C63.9111 27.6825 67.6496 32.1332 70.9431 37.2069C72.5453 39.6992 74.0585 42.3696 75.3937 45.129C76.0168 46.7313 76.6399 47.8884 77.53 50.2027C78.9542 52.6951 76.9069 53.8523 76.4619 54.9204L76.5509 55.0094ZM15.6662 37.4739C14.8651 41.3015 14.6871 45.129 15.0431 48.9566C15.0431 51.6269 15.8443 54.2973 15.9333 56.7007C15.4882 56.7007 15.3102 57.0567 14.9541 56.9677C13.2629 47.9774 12.2837 39.0762 15.9333 30.2639C17.0014 28.3056 18.0696 26.5254 19.5828 25.1012H19.9388V28.3946C18.1586 30.62 16.7344 32.8453 15.5772 37.563L15.6662 37.4739ZM20.0278 30.887C20.0278 32.1332 20.0278 33.3794 20.0278 34.7145C18.7817 36.9399 17.7135 41.1235 17.6245 44.2389C17.2685 47.5324 17.6245 50.9148 17.9806 54.2973C17.8025 54.6534 17.5355 54.8314 17.1794 55.2765C16.9124 55.3655 17.0904 55.0984 16.9124 54.8314C16.2893 50.5588 15.8443 46.3752 16.2003 41.9246C16.3783 39.7883 16.7344 37.741 17.3575 35.6047C18.1586 32.9343 18.8707 32.0442 19.7608 30.4419C19.8498 30.4419 20.1169 30.3529 20.0278 30.709V30.887ZM19.3157 52.25V52.4281H18.9597V52.25C18.5146 47.6214 18.4256 42.9037 19.8498 38.275H20.1169C19.6718 42.9037 20.74 47.6214 19.3157 52.25Z" fill="white"/>
</g>
</g>
<path d="M333.055 54.048H316.759L313.959 62H307.295L321.239 23.024H328.631L342.575 62H335.855L333.055 54.048ZM331.263 48.84L324.935 30.752L318.551 48.84H331.263ZM355.022 35.68C356.104 34.2613 357.579 33.0667 359.446 32.096C361.312 31.1253 363.422 30.64 365.774 30.64C368.462 30.64 370.907 31.312 373.11 32.656C375.35 33.9627 377.104 35.8107 378.374 38.2C379.643 40.5893 380.278 43.3333 380.278 46.432C380.278 49.5307 379.643 52.312 378.374 54.776C377.104 57.2027 375.35 59.1067 373.11 60.488C370.907 61.832 368.462 62.504 365.774 62.504C363.422 62.504 361.331 62.0373 359.502 61.104C357.672 60.1333 356.179 58.9387 355.022 57.52V76.672H348.638V31.144H355.022V35.68ZM373.782 46.432C373.782 44.304 373.334 42.4747 372.438 40.944C371.579 39.376 370.422 38.2 368.966 37.416C367.547 36.5947 366.016 36.184 364.374 36.184C362.768 36.184 361.238 36.5947 359.782 37.416C358.363 38.2373 357.206 39.432 356.31 41C355.451 42.568 355.022 44.416 355.022 46.544C355.022 48.672 355.451 50.5387 356.31 52.144C357.206 53.712 358.363 54.9067 359.782 55.728C361.238 56.5493 362.768 56.96 364.374 56.96C366.016 56.96 367.547 56.5493 368.966 55.728C370.422 54.8693 371.579 53.6373 372.438 52.032C373.334 50.4267 373.782 48.56 373.782 46.432ZM392.975 35.68C394.057 34.2613 395.532 33.0667 397.399 32.096C399.265 31.1253 401.375 30.64 403.727 30.64C406.415 30.64 408.86 31.312 411.063 32.656C413.303 33.9627 415.057 35.8107 416.327 38.2C417.596 40.5893 418.231 43.3333 418.231 46.432C418.231 49.5307 417.596 52.312 416.327 54.776C415.057 57.2027 413.303 59.1067 411.063 60.488C408.86 61.832 406.415 62.504 403.727 62.504C401.375 62.504 399.284 62.0373 397.455 61.104C395.625 60.1333 394.132 58.9387 392.975 57.52V76.672H386.591V31.144H392.975V35.68ZM411.735 46.432C411.735 44.304 411.287 42.4747 410.391 40.944C409.532 39.376 408.375 38.2 406.919 37.416C405.5 36.5947 403.969 36.184 402.327 36.184C400.721 36.184 399.191 36.5947 397.735 37.416C396.316 38.2373 395.159 39.432 394.263 41C393.404 42.568 392.975 44.416 392.975 46.544C392.975 48.672 393.404 50.5387 394.263 52.144C395.159 53.712 396.316 54.9067 397.735 55.728C399.191 56.5493 400.721 56.96 402.327 56.96C403.969 56.96 405.5 56.5493 406.919 55.728C408.375 54.8693 409.532 53.6373 410.391 52.032C411.287 50.4267 411.735 48.56 411.735 46.432Z" fill="#ECECEC"/>
<defs>
<clipPath id="clip0_3087_46211">
<rect width="297.391" height="76" fill="white"/>
</clipPath>
<clipPath id="clip1_3087_46211">
<rect width="297.391" height="76.1948" fill="white"/>
</clipPath>
</defs>
</svg>
